<?xml version="1.0" standalone="no"?>
<!DOCTYPE svg PUBLIC "-//W3C//DTD SVG 20010904//EN"
 "http://www.w3.org/TR/2001/REC-SVG-20010904/DTD/svg10.dtd">
<svg version="1.0" xmlns="http://www.w3.org/2000/svg"
 width="297.000000pt" height="300.000000pt" viewBox="0 0 297.000000 300.000000"
 preserveAspectRatio="xMidYMid meet">

<g transform="translate(0.000000,300.000000) scale(0.100000,-0.100000)"
fill="#000000" stroke="none">
<path d="M1329 2960 c-629 -73 -1129 -530 -1271 -1161 -20 -90 -23 -131 -23
-299 0 -216 13 -301 66 -463 70 -210 182 -397 333 -554 207 -217 450 -356 746
-425 109 -25 383 -36 502 -19 484 69 894 367 1109 806 65 134 92 210 120 336
144 659 -177 1331 -779 1633 -238 119 -547 176 -803 146z m379 -95 c441 -72
832 -369 1020 -775 89 -192 121 -328 129 -545 6 -178 -7 -283 -52 -440 -127
-439 -470 -792 -901 -928 -159 -50 -237 -62 -419 -61 -136 0 -191 5 -272 22
-491 105 -873 449 -1033 929 -135 405 -72 849 172 1215 75 112 233 273 343
350 157 110 379 202 556 232 114 19 342 19 457 1z"/>
<path d="M1445 2851 c-3 -6 -17 -11 -31 -11 -13 0 -34 -10 -46 -22 l-23 -23
50 -6 c28 -4 57 -10 65 -13 12 -5 15 2 15 36 0 40 -16 61 -30 39z m20 -11 c3
-5 1 -10 -4 -10 -6 0 -11 5 -11 10 0 6 2 10 4 10 3 0 8 -4 11 -10z m-14 -37
c12 -15 12 -16 -4 -10 -10 4 -32 7 -48 7 -18 0 -28 4 -24 10 10 16 61 11 76
-7z"/>
<path d="M1085 2780 c3 -6 -4 -10 -18 -10 -27 0 -57 -28 -57 -53 0 -14 5 -15
26 -7 14 6 41 10 61 10 30 0 34 3 28 18 -4 9 -10 25 -12 35 -3 9 -12 17 -20
17 -8 0 -11 -4 -8 -10z m20 -40 c4 -6 -6 -10 -24 -10 -16 0 -38 -3 -48 -7 -16
-6 -16 -5 -4 10 15 18 66 23 76 7z"/>
<path d="M1358 2730 c-21 -16 -22 -21 -10 -52 6 -19 12 -44 12 -56 0 -13 6
-22 15 -22 9 0 15 9 15 25 0 14 9 35 19 46 19 21 19 21 26 -25 5 -28 12 -45
19 -43 6 2 11 9 10 15 -1 7 -2 38 -2 70 l-2 58 -40 1 c-25 1 -47 -5 -62 -17z
m62 -16 c0 -11 -6 -14 -20 -9 -12 4 -27 1 -35 -5 -18 -15 -20 1 -3 18 18 18
58 15 58 -4z m-20 -29 c0 -8 -4 -15 -9 -15 -13 0 -22 16 -14 24 11 11 23 6 23
-9z"/>
<path d="M1533 2738 c-4 -7 -9 -41 -10 -75 -2 -51 0 -63 12 -63 11 0 15 11 15
36 0 19 5 44 10 55 8 15 7 19 -5 19 -8 0 -15 5 -15 11 0 6 12 9 28 7 26 -3 27
-6 30 -66 4 -80 26 -80 30 0 2 41 -1 60 -13 72 -19 19 -70 21 -82 4z"/>
<path d="M1207 2714 c-16 -9 -26 -18 -23 -22 4 -3 12 0 18 6 17 17 55 15 62
-4 9 -25 7 -64 -4 -64 -16 0 -11 -40 6 -47 8 -3 23 1 31 10 14 13 14 22 4 64
-20 76 -38 87 -94 57z m73 -104 c0 -5 -4 -10 -10 -10 -5 0 -10 5 -10 10 0 6 5
10 10 10 6 0 10 -4 10 -10z"/>
<path d="M1680 2711 c0 -12 5 -21 11 -21 15 0 3 -81 -13 -91 -6 -4 6 -12 28
-18 51 -14 69 -14 81 2 13 16 35 118 27 126 -8 8 -34 -29 -34 -50 0 -17 -23
-32 -34 -22 -12 12 -6 22 11 16 11 -4 14 -3 9 5 -4 7 -13 12 -21 12 -9 0 -13
10 -12 28 2 23 -2 28 -25 30 -23 3 -28 -1 -28 -17z m40 -1 c0 -5 -7 -10 -15
-10 -8 0 -15 5 -15 10 0 6 7 10 15 10 8 0 15 -4 15 -10z m50 -106 c0 -8 -10
-14 -25 -14 -18 0 -25 5 -25 19 0 14 6 17 25 13 14 -2 25 -11 25 -18z"/>
<path d="M1107 2694 c-3 -3 -3 -12 -1 -19 7 -18 -15 -30 -29 -16 -14 14 -44
14 -52 0 -11 -16 4 -59 20 -59 8 0 15 6 15 14 0 20 -17 29 -23 14 -3 -8 -6 -6
-6 5 -1 9 6 17 13 17 9 0 22 -22 32 -57 10 -32 19 -59 20 -61 0 -1 12 2 26 7
35 13 41 36 21 79 -9 20 -15 47 -14 60 2 21 -9 29 -22 16z m19 -104 c5 -26 4
-32 -4 -25 -7 6 -15 26 -18 45 -5 26 -4 32 4 25 7 -6 15 -26 18 -45z"/>
<path d="M1874 2679 c-3 -5 2 -9 10 -9 20 0 20 -30 1 -77 -19 -44 -19 -63 -2
-63 16 0 53 111 44 133 -6 17 -45 29 -53 16z"/>
<path d="M933 2619 c-13 -5 -23 -14 -23 -20 0 -9 3 -9 14 0 18 15 35 -1 60
-58 11 -22 25 -41 33 -41 17 0 17 1 -14 64 -30 61 -38 67 -70 55z"/>
<path d="M2000 2623 c29 -6 50 -21 50 -36 0 -7 -4 -7 -12 1 -23 23 -57 14 -78
-20 -23 -38 -22 -56 2 -72 26 -16 47 7 31 34 -10 15 -9 23 5 40 16 19 19 20
30 7 10 -12 9 -23 -9 -60 -12 -25 -31 -48 -41 -50 -18 -5 -26 -37 -9 -37 5 0
12 -10 15 -22 6 -23 6 -23 22 -3 8 11 13 30 11 43 -2 12 0 22 4 22 5 0 20 23
34 50 14 28 32 50 40 50 8 0 15 5 15 11 0 6 -6 9 -14 6 -8 -3 -24 5 -37 19
-15 16 -32 24 -53 23 -28 -2 -28 -2 -6 -6z m-12 -104 c-2 -6 -8 -10 -13 -10
-5 0 -11 4 -13 10 -2 6 4 11 13 11 9 0 15 -5 13 -11z m10 -70 c-2 -6 -8 -10
-13 -10 -5 0 -11 4 -13 10 -2 6 4 11 13 11 9 0 15 -5 13 -11z"/>
<path d="M795 2535 c-14 -13 -25 -29 -25 -35 0 -6 11 2 24 17 29 33 47 27 84
-27 20 -30 21 -35 7 -49 -20 -21 -40 -1 -40 41 0 36 -16 46 -39 23 -14 -15
-14 -19 -1 -45 22 -43 50 -55 81 -35 33 21 40 41 24 71 -36 67 -75 80 -115 39z
m45 -45 c0 -5 -4 -10 -9 -10 -6 0 -13 5 -16 10 -3 6 1 10 9 10 9 0 16 -4 16
-10z"/>
<path d="M2136 2542 c-3 -6 3 -8 14 -5 11 3 20 0 20 -6 0 -6 -7 -11 -16 -11
-8 0 -13 -4 -10 -8 3 -5 -8 -27 -24 -49 -24 -32 -27 -42 -16 -46 18 -7 69 31
60 44 -3 6 2 19 11 29 9 10 15 27 13 37 -3 19 -42 30 -52 15z"/>
<path d="M1375 2504 c-241 -36 -423 -124 -585 -284 -201 -197 -296 -409 -307
-683 -9 -197 23 -347 107 -511 133 -259 356 -438 648 -518 64 -18 106 -22 247
-22 199 -1 276 15 434 89 271 129 456 349 547 650 25 83 28 104 28 265 0 152
-2 186 -23 260 -96 357 -376 635 -730 727 -94 24 -288 38 -366 27z m159 -208
c-14 -35 -84 -31 -84 6 0 11 10 36 21 55 l22 34 23 -39 c13 -22 21 -47 18 -56z
m-84 -16 c25 -25 51 -25 83 1 l26 20 30 -22 c16 -12 41 -21 55 -21 14 0 24 -4
21 -8 -2 -4 11 -14 31 -23 47 -23 122 -94 144 -138 26 -50 34 -126 21 -190 -7
-33 -41 -107 -86 -189 -81 -146 -91 -184 -54 -221 16 -16 23 -18 35 -8 12 10
11 14 -8 23 -43 22 -35 86 15 116 17 11 32 23 32 27 0 5 7 23 14 42 13 31 15
32 22 13 5 -12 7 -47 5 -78 -3 -43 1 -65 15 -88 24 -40 24 -73 -1 -113 -11
-19 -15 -35 -10 -38 6 -4 10 -15 10 -26 0 -10 4 -19 10 -19 5 0 17 -12 27 -26
17 -26 16 -27 -12 -51 -16 -15 -24 -28 -18 -31 6 -4 20 -26 32 -50 12 -23 25
-42 29 -42 4 0 14 -4 22 -10 12 -7 9 -13 -13 -30 -15 -12 -34 -35 -43 -52 -26
-50 0 -100 34 -66 19 19 15 -22 -5 -44 -53 -59 -185 22 -169 104 5 27 4 29
-17 22 -12 -3 -23 -8 -25 -9 -8 -7 50 -115 81 -153 42 -50 45 -57 18 -42 -11
5 -28 10 -39 10 -11 0 -22 6 -25 14 -5 12 -11 13 -36 3 -38 -14 -63 2 -41 28
16 19 9 19 -35 1 -46 -20 -217 -20 -263 0 -19 8 -36 14 -37 14 -1 0 0 -11 3
-25 5 -28 -14 -33 -49 -14 -16 8 -23 7 -32 -4 -7 -8 -27 -17 -45 -21 l-32 -6
39 50 c51 65 80 138 60 151 -26 16 -41 11 -29 -10 12 -24 -1 -65 -32 -98 -40
-43 -131 -42 -147 0 -10 25 -3 46 9 27 4 -7 15 -10 24 -7 33 13 10 99 -36 131
l-22 15 27 21 c14 11 32 36 38 55 7 19 20 35 28 35 10 0 6 9 -12 28 -32 34
-33 43 -7 67 11 10 20 27 20 37 0 10 6 21 14 24 11 4 9 13 -10 42 -27 39 -26
81 3 113 9 11 13 33 12 60 -2 24 -2 61 -1 83 l2 39 20 -26 c11 -14 20 -32 20
-40 0 -8 11 -22 25 -31 56 -37 71 -106 25 -121 -28 -9 -25 -25 4 -25 19 0 27
8 36 36 13 39 15 35 -113 277 -44 83 -47 92 -47 165 0 64 5 88 26 130 27 55
84 110 140 137 19 9 34 21 34 27 0 5 6 8 13 5 8 -3 31 5 53 18 21 13 40 24 42
24 1 1 11 -8 22 -19z m-406 -22 c-4 -7 -16 -19 -26 -26 -10 -7 -18 -21 -18
-30 0 -9 -12 -28 -28 -42 -15 -14 -22 -21 -15 -16 19 13 21 6 14 -44 -5 -34
-12 -47 -31 -57 -22 -11 -22 -13 -5 -13 18 0 17 -2 -7 -25 -33 -30 -58 -32
-58 -5 0 11 6 20 14 20 8 0 17 4 20 9 3 4 -5 6 -18 4 -13 -3 -27 0 -30 6 -7
10 13 15 52 14 6 -1 12 3 12 7 0 5 3 16 7 26 6 16 4 15 -16 -3 -18 -17 -108
-39 -119 -29 -7 8 12 36 28 41 11 3 22 15 25 26 12 38 32 16 26 -30 -3 -20 23
-7 27 14 3 11 0 15 -8 10 -8 -5 -11 1 -8 19 2 15 7 25 12 24 5 -2 12 7 17 19
4 12 20 24 38 28 17 4 35 13 39 22 5 8 20 20 33 28 31 17 31 17 23 3z m962
-33 c3 -7 19 -15 35 -19 18 -3 33 -14 38 -28 5 -13 12 -22 17 -20 5 1 10 -6
12 -18 2 -11 -1 -20 -7 -20 -6 0 -11 -7 -11 -15 0 -8 2 -15 4 -15 2 0 13 -3
23 -6 14 -5 15 -4 7 5 -6 7 -9 23 -7 36 5 22 6 22 44 -16 40 -40 51 -66 23
-55 -38 15 -64 18 -64 7 0 -6 8 -8 18 -4 15 6 15 5 3 -11 -9 -11 -23 -15 -35
-12 -19 5 -20 4 -3 -8 21 -16 22 -46 2 -46 -9 0 -28 11 -43 25 -24 23 -25 25
-7 25 17 0 17 2 -5 13 -20 10 -26 22 -31 60 -4 43 -3 48 13 44 27 -7 22 1 -12
18 -16 9 -30 23 -30 32 0 9 -12 30 -27 45 l-27 29 33 -17 c18 -9 35 -22 37
-29z m-1240 -197 c-9 -12 -16 -27 -16 -33 1 -5 7 2 15 16 11 20 22 26 50 27
41 2 51 -13 39 -56 -5 -19 -8 -22 -11 -10 -11 46 -73 14 -78 -40 -3 -40 -15
-55 -15 -18 0 22 -2 25 -14 14 -8 -8 -10 -15 -4 -19 6 -4 5 -9 -2 -14 -8 -5
-18 -1 -27 10 -15 22 -17 35 -4 35 5 0 7 9 4 20 -6 24 9 26 31 5 8 -8 17 -11
20 -6 3 5 -5 16 -19 25 -26 17 -24 52 2 41 10 -3 13 -1 10 9 -3 7 2 24 11 37
l17 24 3 -22 c2 -13 -4 -33 -12 -45z m1474 41 c7 -11 9 -28 5 -37 -6 -15 -8
-15 -21 2 -16 23 -19 56 -4 56 5 0 14 -9 20 -21z m-17 -50 c10 -16 12 -16 24
-1 11 15 14 15 23 2 7 -11 5 -19 -10 -32 -11 -9 -20 -21 -20 -28 0 -7 6 -5 16
4 34 34 46 15 35 -56 -1 -5 -11 -8 -23 -8 -14 0 -18 3 -12 8 9 5 7 11 -4 21
-14 13 -15 11 -9 -25 4 -26 3 -34 -3 -24 -5 8 -10 27 -10 41 0 26 -34 79 -50
79 -5 0 -15 -7 -23 -15 -8 -8 -17 -11 -21 -8 -8 8 -8 48 0 56 14 13 76 3 87
-14z m-143 -69 c5 0 10 -7 10 -15 0 -19 28 -49 53 -58 9 -4 20 -15 24 -24 4
-10 11 -21 17 -25 6 -4 5 -12 -4 -23 -12 -14 -16 -12 -41 17 -27 33 -27 33
-28 8 -5 -138 -8 -170 -14 -176 -4 -4 -7 9 -7 29 0 21 -4 37 -10 37 -5 0 -7
-7 -3 -16 4 -12 1 -15 -13 -12 -15 3 -19 11 -17 43 5 97 5 95 27 83 16 -8 14
-3 -9 21 -26 28 -28 35 -18 60 6 18 7 34 1 45 -5 10 -7 25 -3 34 6 15 8 14 16
-5 4 -13 13 -23 19 -23z m-1130 11 c0 -11 -5 -23 -10 -26 -7 -4 -7 -12 0 -25
16 -30 12 -47 -17 -74 -22 -20 -23 -24 -7 -20 20 5 24 -6 27 -86 2 -26 -2 -35
-15 -38 -13 -2 -16 1 -12 12 3 9 1 16 -5 16 -6 0 -11 -17 -12 -37 l-1 -38 -9
30 c-5 17 -7 44 -3 60 4 23 3 26 -5 15 -10 -13 -12 -13 -21 0 -5 8 -8 21 -5
28 3 7 0 10 -5 7 -12 -8 -13 5 -1 24 7 11 12 7 25 -15 8 -16 15 -25 16 -21 0
5 -5 17 -11 28 -7 15 -7 24 2 35 7 9 8 14 1 14 -6 0 -21 -14 -35 -31 -21 -27
-25 -29 -37 -14 -9 11 -10 19 -3 23 5 4 12 12 14 19 2 6 20 22 39 35 19 13 36
32 38 42 4 19 32 54 45 55 4 1 7 -8 7 -18z m-157 -21 c-21 -24 -28 -19 -13 9
6 12 15 19 20 16 5 -3 2 -14 -7 -25z m1417 11 c5 -11 10 -26 9 -33 0 -7 -4 -3
-9 10 -5 12 -14 22 -20 22 -5 0 -10 5 -10 10 0 17 19 11 30 -9z m117 -118
c-14 -44 -43 -53 -40 -13 1 14 0 19 -3 12 -6 -13 -24 -7 -24 8 0 5 14 23 30
40 17 17 30 38 31 48 1 9 5 0 10 -20 6 -25 5 -50 -4 -75z m-1643 72 c4 -14 11
-25 16 -25 14 0 32 -39 24 -51 -4 -8 -10 -7 -16 2 -7 10 -8 5 -4 -13 5 -21 3
-28 -8 -28 -26 0 -40 42 -37 113 1 34 17 35 25 2z m153 7 c-10 -10 -17 -24
-17 -30 0 -6 -9 -26 -19 -43 -19 -31 -19 -31 -31 -9 -13 24 -6 55 10 45 5 -3
10 3 10 14 0 20 24 40 49 41 11 0 11 -4 -2 -18z m1362 -8 c32 -27 41 -64 18
-82 -9 -8 -17 0 -32 31 -10 23 -26 50 -34 60 -23 28 12 22 48 -9z m-1539 -141
c12 -18 12 -28 0 -62 -7 -23 -10 -44 -7 -48 4 -3 7 3 7 15 0 11 5 24 10 27 6
3 10 -5 10 -19 0 -14 5 -28 11 -32 6 -3 9 -17 6 -30 -2 -13 0 -21 4 -18 14 8
10 -32 -4 -44 -12 -10 -47 6 -47 23 0 4 -9 18 -20 32 -11 14 -20 21 -20 16 0
-5 5 -14 12 -21 6 -6 9 -15 5 -18 -9 -9 -48 26 -45 40 0 6 -2 18 -6 28 -4 9
-1 29 8 47 9 16 16 37 16 46 0 9 5 13 11 9 8 -4 9 0 4 15 -3 12 -1 35 7 52
l13 30 6 -33 c3 -18 11 -43 19 -55z m1717 51 c9 -19 9 -32 2 -46 -8 -15 -8
-19 0 -14 6 4 11 0 11 -11 0 -10 7 -27 15 -37 18 -24 20 -66 3 -66 -10 0 -10
-2 0 -8 9 -6 6 -14 -13 -32 -25 -24 -45 -22 -29 3 5 7 1 4 -8 -8 -48 -55 -51
-58 -65 -39 -16 21 -17 48 -3 39 7 -4 9 2 5 18 -4 14 -2 28 4 31 6 4 11 19 11
33 0 21 2 24 15 13 18 -15 19 -9 4 24 -10 20 -9 30 5 50 9 14 16 37 16 51 0
32 12 32 27 -1z m-239 -48 c-6 -14 -15 -26 -20 -26 -12 0 -10 38 3 62 10 19
13 19 20 5 6 -10 5 -25 -3 -41z m-1368 22 c0 -10 3 -9 9 1 12 18 59 -13 67
-45 3 -13 10 -24 14 -24 12 0 20 -118 10 -145 -6 -16 -6 -25 0 -25 16 0 11
-19 -10 -40 -20 -20 -47 -19 -34 1 3 5 -11 -2 -32 -16 -49 -33 -55 -25 -15 21
18 20 37 47 42 61 11 31 12 73 0 73 -5 0 -14 14 -21 30 -7 17 -20 35 -29 40
-9 5 -11 10 -4 10 14 0 53 -39 53 -54 0 -6 5 -3 11 7 6 10 8 21 5 24 -3 4 -6
0 -6 -8 0 -11 -2 -11 -10 1 -14 21 -12 33 3 24 8 -5 8 -3 -2 9 -7 9 -17 15
-21 12 -5 -3 -11 -1 -15 5 -8 13 -75 13 -75 0 0 -5 -4 -10 -10 -10 -10 0 -3
27 13 48 5 6 20 12 33 12 13 0 24 -6 24 -12z m1441 0 c0 -10 2 -10 6 0 5 13
41 16 59 4 6 -4 15 -18 19 -31 7 -23 7 -23 -16 -7 -33 22 -64 20 -83 -6 -9
-13 -14 -17 -11 -10 9 17 0 15 -16 -5 -12 -14 -12 -16 0 -8 11 6 13 4 7 -11
-17 -40 -17 -58 -1 -29 16 29 32 45 48 45 4 0 -2 -9 -13 -20 -11 -11 -20 -24
-20 -29 0 -5 -7 -17 -16 -26 -23 -23 -11 -75 32 -131 19 -25 34 -48 32 -50 -2
-2 -21 8 -42 23 -22 14 -36 21 -32 14 12 -20 -20 -12 -40 10 -14 16 -15 22 -5
28 10 7 10 13 2 29 -12 23 -4 142 10 142 5 0 9 9 9 19 0 11 12 29 26 40 30 24
44 26 45 9z m-1428 -112 c20 -15 35 -60 29 -91 -1 -12 -14 -34 -28 -50 l-25
-30 20 39 c11 22 17 44 14 50 -4 6 -8 6 -11 -2 -8 -26 -23 -10 -21 22 2 23 -3
42 -15 55 -19 21 -19 21 0 21 10 0 27 -7 37 -14z m197 -38 c0 -10 -4 -18 -9
-18 -13 0 -2 -37 15 -51 16 -13 19 -55 4 -64 -5 -3 -10 0 -10 7 0 7 -6 1 -14
-14 -42 -79 -48 -86 -75 -79 -34 9 -39 42 -12 80 12 16 21 34 21 41 0 7 6 10
14 7 11 -5 13 1 9 27 -3 22 0 36 11 45 9 7 16 27 16 44 0 29 1 30 15 11 8 -10
15 -27 15 -36z m1077 -20 c11 -12 14 -28 9 -55 -5 -30 -4 -34 5 -20 9 16 14
12 36 -32 28 -58 27 -85 -5 -89 -20 -3 -52 17 -52 33 0 13 -37 54 -43 48 -3
-3 -9 6 -13 21 -4 17 1 36 15 60 14 22 18 37 11 41 -14 9 -13 38 3 54 10 10
13 7 15 -16 2 -15 11 -36 19 -45z m195 56 c-17 -12 -22 -24 -20 -49 2 -39 -9
-56 -22 -35 -8 12 -10 10 -10 -9 0 -14 7 -33 17 -43 9 -10 11 -18 6 -18 -6 0
-20 18 -31 41 -32 65 -4 129 57 129 l25 0 -22 -16z m-1504 -144 c-2 -24 -9
-36 -20 -38 -13 -3 -16 1 -11 14 4 12 3 15 -5 10 -17 -10 -15 10 4 39 9 13 13
30 9 37 -4 7 1 4 10 -7 10 -12 15 -34 13 -55z m1519 49 c1 -12 9 -29 17 -38
21 -23 20 -35 0 -27 -12 4 -15 2 -10 -9 7 -18 -5 -20 -22 -3 -15 15 -16 53 -2
79 13 24 15 24 17 -2z m-1687 -38 c0 -13 3 -21 7 -18 10 11 43 -24 43 -45 0
-11 5 -16 10 -13 6 4 10 -5 10 -20 0 -18 -7 -28 -26 -36 -26 -9 -27 -11 -22
-82 4 -58 3 -67 -6 -46 -6 14 -19 34 -29 44 -14 14 -17 26 -12 49 4 17 7 44 7
59 1 19 5 26 15 23 8 -4 6 4 -7 22 -15 21 -18 36 -13 70 6 45 23 40 23 -7z
m1857 1 c1 -36 -3 -52 -20 -70 -15 -16 -17 -21 -6 -17 24 9 38 -114 15 -130
-8 -7 -20 -24 -26 -40 -15 -40 -20 -27 -9 26 11 51 -1 99 -26 99 -18 0 -33 52
-17 58 7 2 12 10 12 18 0 7 11 21 25 30 14 9 25 24 25 33 0 12 17 41 25 41 0
0 1 -21 2 -48z m-1779 3 c24 -28 29 -65 9 -65 -17 0 -37 21 -37 39 0 8 -7 23
-17 33 -15 17 -15 18 4 18 11 0 29 -11 41 -25z m1708 -17 c-24 -45 -48 -56
-54 -25 -5 23 35 67 59 67 16 0 15 -4 -5 -42z m-1346 -80 c-23 -31 -26 -46 -6
-29 11 9 14 7 14 -11 1 -13 4 -38 8 -57 5 -25 3 -37 -8 -45 -8 -6 -21 -22 -28
-36 -12 -23 -12 -24 3 -11 26 21 20 -2 -13 -47 -36 -50 -76 -72 -127 -71 l-38
1 35 10 c19 5 41 14 48 20 15 13 16 32 1 22 -7 -4 -10 1 -7 12 4 22 48 33 48
12 0 -31 32 37 37 80 4 37 2 51 -11 61 -9 7 -16 10 -16 6 0 -4 -7 -2 -15 5 -9
8 -15 9 -15 2 0 -6 5 -14 10 -17 6 -4 8 -11 5 -16 -4 -5 -1 -9 4 -9 6 0 11 5
11 11 0 5 5 7 10 4 13 -8 13 -62 0 -70 -7 -4 -9 3 -5 22 l6 28 -14 -30 -14
-30 -13 45 c-18 59 -29 73 -57 67 -28 -5 -30 8 -3 23 14 7 26 7 39 1 22 -12
31 -5 31 22 0 13 5 17 15 13 8 -3 15 0 15 7 0 7 9 18 20 25 12 7 20 23 20 40
l0 27 15 -29 c15 -28 14 -32 -5 -58z m963 53 c-3 -13 2 -24 16 -33 12 -7 21
-18 21 -25 0 -7 7 -10 15 -7 9 4 16 -3 21 -21 5 -19 10 -23 17 -16 16 16 42
14 57 -4 11 -13 9 -15 -13 -15 -34 0 -46 -18 -56 -86 -5 -33 -9 -50 -10 -39
-2 28 -27 60 -34 43 -3 -7 -6 -2 -6 12 0 14 4 32 9 40 8 13 10 12 10 -2 0 -25
17 -22 23 4 8 28 6 29 -23 15 -20 -10 -25 -20 -24 -47 2 -73 15 -100 44 -93
11 3 27 0 35 -7 11 -9 15 -9 15 -1 0 6 -7 14 -15 17 -27 11 -17 87 14 103 14
8 16 2 18 -35 1 -24 -3 -44 -8 -44 -6 0 -7 5 -4 10 3 6 1 10 -4 10 -16 0 -13
-36 4 -50 16 -13 21 -35 6 -25 -5 3 -12 1 -16 -5 -4 -6 -11 -7 -17 -4 -6 4 -9
1 -6 -7 3 -8 25 -22 49 -31 l44 -17 -35 0 c-49 -1 -110 37 -137 84 -24 42 -23
56 2 35 14 -11 14 -10 0 16 -8 16 -20 29 -27 29 -9 0 -12 13 -11 40 2 22 3 50
4 63 1 18 4 20 15 11 20 -17 17 -3 -6 29 -18 24 -19 31 -8 54 14 29 29 29 21
-1z m-1238 -41 c17 -14 20 -50 5 -50 -5 0 -10 6 -10 14 0 19 -20 25 -47 15
-45 -16 -71 -113 -48 -174 7 -16 10 -37 8 -45 -3 -10 0 -9 7 3 6 9 9 21 5 26
-7 13 25 79 41 85 10 4 11 0 2 -19 -15 -34 -2 -91 28 -114 14 -11 20 -22 14
-26 -5 -3 -22 6 -38 22 -15 15 -24 24 -20 18 11 -13 10 -27 -2 -20 -5 3 -10
-1 -10 -10 0 -8 11 -21 25 -27 25 -11 34 -28 15 -28 -50 0 -107 77 -95 130 3
16 2 31 -4 35 -6 3 -11 26 -11 49 0 36 5 47 25 60 15 10 25 26 25 40 0 14 6
26 13 29 20 6 57 0 72 -13z m1554 8 c11 -10 12 -10 7 -1 -5 9 -2 11 8 7 9 -3
16 -15 16 -26 0 -10 11 -29 25 -42 19 -18 25 -33 25 -65 0 -22 -4 -41 -10 -41
-5 0 -10 11 -10 25 0 56 -48 125 -88 125 -7 0 -17 -10 -21 -22 -8 -21 -10 -21
-16 -5 -5 11 -1 25 10 37 21 23 36 25 54 8z m-1482 -54 c-3 -19 -1 -46 5 -60
9 -18 9 -27 0 -36 -17 -17 -15 -33 3 -18 13 10 15 9 15 -8 0 -12 5 -24 10 -27
16 -10 12 -57 -7 -77 -9 -10 -27 -18 -40 -18 -24 0 -31 -14 -11 -26 7 -4 8 -3
4 4 -4 7 -1 12 10 12 12 0 15 -6 11 -22 -3 -13 -8 -39 -11 -58 -5 -31 -5 -32
3 -7 16 49 29 57 77 50 30 -4 49 -1 60 8 16 13 16 12 5 -8 -10 -21 -17 -25
-37 -22 -3 0 -12 -7 -18 -17 -14 -18 -52 -13 -41 6 3 5 1 10 -4 10 -19 0 -12
-63 14 -124 13 -33 23 -61 21 -63 -2 -2 -16 21 -32 51 -16 30 -30 53 -32 51
-5 -5 46 -103 58 -110 5 -3 10 -14 10 -23 -1 -12 -9 -8 -29 16 -39 46 -84 140
-78 164 3 11 3 17 0 14 -3 -3 -12 2 -19 12 -10 14 -15 15 -26 4 -7 -7 -8 -12
-3 -10 6 2 12 -1 15 -7 3 -5 -6 -11 -18 -13 -17 -3 -33 6 -53 29 -16 18 -29
33 -29 33 0 1 27 1 60 0 56 0 59 1 54 21 -3 13 2 28 15 39 25 22 27 44 6 52
-8 4 -15 13 -15 20 0 12 4 12 21 3 21 -11 21 -11 3 14 -11 14 -22 23 -26 20
-14 -8 -9 -50 7 -63 8 -7 15 -16 15 -21 0 -15 -37 -10 -50 6 -10 12 -10 15 0
15 9 0 8 6 -4 19 -13 14 -15 24 -8 38 6 10 15 31 22 47 9 24 13 27 22 15 7
-11 9 -9 5 9 -5 19 28 90 42 92 2 0 1 -16 -2 -36z m1373 10 c0 -8 7 -17 16
-21 12 -4 14 -14 10 -37 -4 -20 -3 -26 3 -17 7 11 12 7 25 -16 8 -17 12 -33 9
-37 -4 -3 -1 -6 5 -6 17 0 15 -26 -4 -44 -8 -9 -11 -16 -5 -16 6 0 8 -7 5 -15
-4 -8 -17 -15 -30 -15 -28 0 -30 6 -9 26 16 16 21 64 7 64 -5 0 -17 -10 -28
-21 -19 -22 -19 -22 4 -10 18 10 22 9 22 -3 0 -7 -7 -16 -15 -20 -22 -8 -18
-31 8 -49 20 -13 21 -18 10 -46 -9 -24 -9 -29 0 -24 11 8 117 12 117 5 0 -2
-13 -17 -30 -34 -30 -30 -60 -34 -68 -9 -3 8 0 11 7 7 6 -4 11 -2 11 4 0 6 -7
10 -17 8 -9 -2 -23 -24 -33 -53 -22 -62 -63 -136 -90 -160 -28 -26 -25 -1 5
39 26 34 59 105 52 112 -3 3 -12 -14 -21 -37 -10 -23 -26 -54 -38 -68 -20 -26
-20 -26 -13 -2 5 16 4 21 -4 17 -8 -5 -8 0 -1 20 8 20 8 30 -1 38 -9 8 -10 8
-5 -1 4 -7 3 -13 -2 -13 -6 0 -12 18 -14 40 -4 44 -1 47 27 27 15 -11 17 -23
12 -63 -5 -46 -4 -47 9 -23 18 35 34 108 27 125 -7 20 -24 17 -21 -2 4 -23
-16 -28 -35 -9 -9 8 -20 15 -25 15 -5 0 -17 10 -28 21 -19 22 -19 22 4 10 14
-8 39 -10 61 -6 45 7 70 -11 72 -53 1 -17 3 -21 6 -9 2 9 9 15 14 12 16 -11
10 4 -12 26 -13 13 -19 30 -17 47 3 26 1 27 -34 24 -21 -2 -38 1 -38 6 0 5 12
7 26 4 24 -4 25 -3 15 16 -17 32 -13 57 13 84 16 19 20 30 14 42 -5 10 -5 24
2 36 6 12 8 36 4 57 -5 26 -4 34 5 29 6 -4 11 -14 11 -22z m-1480 2 c0 -2 -7
-17 -15 -32 -8 -16 -15 -38 -15 -49 0 -11 -5 -27 -10 -35 -17 -26 -12 57 5 90
13 25 35 41 35 26z m1605 -20 c16 -24 19 -49 13 -129 -5 -62 8 -82 17 -27 5
30 10 38 16 29 24 -38 -3 -109 -51 -134 -42 -22 -59 -8 -21 16 28 17 43 41 24
38 -19 -3 -25 2 -17 14 5 7 1 4 -9 -7 -12 -13 -14 -21 -7 -26 8 -5 6 -9 -5
-13 -11 -5 -14 -3 -9 5 5 8 2 9 -9 5 -23 -9 -21 2 4 29 25 27 37 98 19 119
-17 20 -1 19 22 -2 18 -16 19 -16 13 16 -3 18 -12 46 -21 62 -18 35 -1 39 21
5z m-1401 -97 c7 -18 11 -40 9 -50 -6 -20 -53 -67 -53 -52 0 6 7 16 15 23 17
14 20 50 4 50 -5 0 -7 -4 -4 -10 3 -5 1 -10 -4 -10 -6 0 -11 9 -11 20 0 11 5
20 10 20 7 0 7 6 0 20 -9 16 -8 20 5 20 9 0 22 -14 29 -31z m-24 -128 c0 -5
-9 -11 -20 -14 -11 -3 -20 -1 -20 3 0 5 8 11 18 13 9 3 18 5 20 6 1 0 2 -3 2
-8z m-165 -19 c-3 -3 -11 0 -18 7 -9 10 -8 11 6 5 10 -3 15 -9 12 -12z m1322
-134 c10 -11 12 -25 8 -40 -4 -13 -4 -20 1 -15 10 10 34 -48 34 -85 0 -43 -65
-96 -158 -128 -30 -11 -27 -8 53 42 57 35 82 72 65 94 -11 12 -15 12 -21 2 -7
-10 -12 -9 -26 5 -11 11 -13 17 -5 17 9 0 10 5 4 18 -6 11 -5 30 4 52 7 19 13
29 13 21 1 -8 4 -11 7 -8 4 4 1 13 -6 22 -8 10 -10 24 -4 42 l8 28 4 -25 c2
-14 11 -33 19 -42z m-1067 31 c0 -11 -5 -30 -11 -41 -6 -11 -7 -18 -1 -14 5 3
15 -8 22 -24 10 -24 10 -33 0 -45 -8 -10 -9 -15 -2 -15 6 0 9 -7 5 -16 -4 -11
-13 -14 -29 -10 -20 5 -24 3 -24 -17 0 -23 46 -77 66 -77 5 0 -6 12 -23 26
-18 14 -33 31 -33 37 0 6 15 -3 33 -20 17 -17 50 -40 72 -51 22 -12 34 -21 27
-22 -7 0 -10 -4 -7 -10 10 -15 -1 -12 -63 19 -67 34 -112 76 -112 104 0 35 23
88 37 83 9 -4 10 0 1 19 -9 20 -8 28 5 43 10 10 17 26 17 35 0 9 5 17 10 17 6
0 10 -9 10 -21z m-67 -31 c-2 -45 -2 -45 -13 -28 -7 12 -10 8 -10 -15 0 -23
-3 -27 -10 -15 -13 21 -12 64 2 78 21 21 33 13 31 -20z m-139 -10 c9 -12 46
-80 46 -84 0 -2 -8 -4 -18 -4 -23 0 -73 50 -51 51 8 0 4 4 -8 9 -12 5 -26 18
-32 28 -10 18 -8 19 25 12 20 -5 37 -10 38 -12z m1491 -14 c-16 -13 -26 -24
-21 -24 5 0 -1 -11 -14 -25 -24 -25 -50 -33 -50 -15 0 28 36 81 60 86 14 3 30
7 35 9 23 6 18 -8 -10 -31z m-1397 -131 c35 -47 4 -45 -46 2 l-37 36 29 -3
c18 -2 37 -14 54 -35z m1300 2 c-51 -48 -79 -47 -42 0 18 25 34 35 53 35 l26
-1 -37 -34z m-132 -23 c-11 -18 -99 -72 -115 -72 -9 1 4 11 29 24 25 13 54 33
64 45 19 20 34 22 22 3z m-729 -135 c29 11 24 -23 -14 -86 -2 -2 -6 -2 -9 1
-3 4 2 20 10 37 20 37 20 38 1 38 -8 0 -12 -4 -9 -8 3 -5 -3 -20 -12 -34 -16
-24 -18 -25 -33 -9 -12 12 -13 18 -3 21 7 3 17 13 22 24 9 16 8 17 -7 12 -16
-6 -16 -5 -4 10 12 15 16 16 30 4 9 -8 21 -12 28 -10z m263 12 c12 -8 9 -10
-12 -6 -15 2 -29 -1 -31 -6 -2 -6 -9 -7 -16 -3 -11 7 -11 10 0 17 19 12 41 11
59 -2z m-110 -19 c12 -8 10 -10 -10 -10 -18 0 -21 -3 -11 -9 11 -7 11 -15 0
-45 -7 -20 -17 -36 -22 -36 -5 0 -7 6 -4 14 3 8 -1 22 -8 33 -13 15 -16 16
-24 3 -12 -18 -2 -37 11 -19 7 11 8 9 6 -5 -2 -11 -9 -21 -15 -24 -17 -5 -27
23 -17 46 4 9 6 22 5 29 -1 7 13 17 31 22 43 12 41 12 58 1z m250 -4 c0 -42
-14 -77 -28 -71 -8 3 -21 0 -29 -6 -10 -9 -17 -9 -25 -1 -9 9 -9 12 2 12 7 0
10 3 7 7 -4 3 -2 12 4 20 9 10 8 13 -6 13 -21 0 -14 24 8 28 11 2 17 -5 19
-24 5 -43 28 -42 28 0 0 20 5 36 10 36 6 0 10 -6 10 -14z m-177 -12 c4 -4 -1
-20 -10 -35 -9 -16 -14 -31 -10 -35 12 -12 47 28 47 53 0 12 5 23 10 23 13 0
13 -16 0 -40 -7 -13 -7 -21 0 -25 18 -11 1 -24 -33 -23 -45 1 -49 5 -32 38 14
26 14 29 0 24 -15 -6 -21 7 -8 19 8 9 28 9 36 1z m-253 -90 c0 -8 -4 -14 -9
-14 -11 0 -22 26 -14 34 9 9 23 -3 23 -20z m330 22 c0 -3 -4 -8 -10 -11 -5 -3
-10 -1 -10 4 0 6 5 11 10 11 6 0 10 -2 10 -4z"/>
<path d="M1476 2334 c-11 -29 -6 -44 13 -44 27 0 34 15 19 40 -15 24 -24 25
-32 4z"/>
<path d="M1420 2264 c0 -3 16 -12 37 -20 33 -14 40 -14 75 2 47 21 44 30 -3
10 -29 -12 -39 -12 -68 0 -37 16 -41 16 -41 8z"/>
<path d="M1570 2245 c-17 -21 -10 -26 26 -16 28 7 28 8 8 19 -18 9 -24 9 -34
-3z"/>
<path d="M1376 2241 c-3 -5 6 -11 19 -14 29 -5 43 8 19 17 -22 8 -32 8 -38 -3z"/>
<path d="M1299 2203 c-11 -13 -11 -17 -1 -20 6 -3 10 -9 6 -14 -3 -5 -1 -9 4
-9 5 0 12 14 14 30 5 34 -3 38 -23 13z"/>
<path d="M1340 2195 c0 -15 6 -25 14 -25 19 0 27 37 9 44 -22 9 -23 8 -23 -19z"/>
<path d="M1453 2208 c2 -7 10 -12 16 -10 6 1 11 -5 11 -13 0 -8 5 -15 10 -15
6 0 10 7 10 15 0 8 6 12 14 9 7 -3 16 2 19 10 5 13 -2 16 -39 16 -32 0 -44 -4
-41 -12z"/>
<path d="M1614 2214 c-18 -8 -4 -44 17 -44 20 0 23 8 13 34 -6 16 -11 18 -30
10z"/>
<path d="M1660 2190 c0 -16 5 -30 11 -30 5 0 7 5 4 10 -3 6 -1 10 5 10 6 0 15
-11 20 -25 12 -31 26 -32 35 -4 5 14 1 27 -9 37 -13 13 -16 13 -16 2 0 -9 -7
-7 -20 8 -27 29 -30 28 -30 -8z"/>
<path d="M1254 2185 c-4 -8 -3 -27 1 -42 6 -24 8 -25 22 -10 10 10 13 24 9 41
-7 29 -23 34 -32 11z"/>
<path d="M1395 2190 c-3 -5 -1 -10 4 -10 6 0 11 5 11 10 0 6 -2 10 -4 10 -3 0
-8 -4 -11 -10z"/>
<path d="M1570 2190 c0 -5 5 -10 10 -10 6 0 10 5 10 10 0 6 -4 10 -10 10 -5 0
-10 -4 -10 -10z"/>
<path d="M1430 2180 c0 -5 5 -10 10 -10 6 0 10 5 10 10 0 6 -4 10 -10 10 -5 0
-10 -4 -10 -10z"/>
<path d="M1535 2180 c-3 -5 1 -10 9 -10 9 0 16 5 16 10 0 6 -4 10 -9 10 -6 0
-13 -4 -16 -10z"/>
<path d="M1214 2145 c-4 -9 0 -24 10 -33 15 -15 16 -14 16 10 0 32 -17 46 -26
23z"/>
<path d="M1305 2132 c-69 -41 -89 -79 -90 -168 0 -68 3 -77 67 -205 90 -182
98 -241 41 -310 -23 -27 -24 -31 -8 -28 33 7 60 67 59 131 -1 50 -9 75 -70
195 -61 121 -69 145 -72 203 -3 77 21 129 78 168 30 20 43 23 95 18 75 -7 95
-7 170 0 54 5 64 2 101 -22 65 -43 95 -124 74 -205 -6 -24 -39 -99 -72 -167
-52 -102 -63 -133 -66 -185 -3 -53 0 -67 20 -97 13 -19 33 -36 43 -38 19 -3
19 -3 -1 12 -32 23 -47 69 -42 134 3 46 17 83 71 190 62 123 67 138 67 198 0
80 -25 134 -79 169 -50 34 -95 40 -155 21 -31 -10 -55 -12 -66 -6 -9 5 -39 12
-66 15 -42 5 -56 2 -99 -23z"/>
<path d="M1746 2144 c-8 -22 -8 -44 2 -44 20 1 34 19 27 39 -8 25 -20 27 -29
5z"/>
<path d="M1180 2115 c-10 -12 -9 -20 4 -40 9 -14 12 -25 6 -25 -6 0 -13 7 -16
15 -10 25 -27 17 -22 -10 3 -14 1 -25 -3 -25 -18 0 -8 -40 11 -50 28 -15 49
-1 25 17 -15 10 -16 16 -7 25 7 7 12 8 12 3 0 -6 7 3 15 19 23 44 2 104 -25
71z"/>
<path d="M1778 2102 c-21 -37 -13 -59 13 -36 20 18 25 49 11 58 -5 3 -15 -7
-24 -22z"/>
<path d="M1312 2094 c-86 -68 -86 -135 1 -321 78 -165 79 -170 78 -241 0 -46
-5 -62 -31 -93 -34 -43 -36 -49 -15 -49 8 0 21 -13 30 -29 8 -16 24 -32 35
-36 11 -4 18 -10 15 -14 -2 -5 11 -29 31 -55 l35 -46 35 41 c19 22 34 44 34
49 0 4 20 29 45 54 l46 46 -27 35 c-32 42 -42 114 -24 171 6 22 39 96 72 167
34 71 63 147 65 171 7 57 -27 130 -71 157 -38 23 -108 25 -145 3 -25 -15 -30
-15 -59 0 -48 25 -111 21 -150 -10z m263 -43 c140 -63 152 -254 22 -335 -110
-68 -246 -15 -283 110 -45 157 113 293 261 225z m-85 -443 c0 -13 7 -36 15
-52 22 -41 19 -66 -12 -100 -16 -17 -21 -25 -13 -18 12 10 16 8 27 -10 l12
-23 1 26 c0 15 6 38 13 52 15 29 32 21 58 -28 14 -25 16 -43 10 -86 -1 -3 -13
-11 -28 -18 -23 -10 -29 -10 -38 3 -10 13 -13 12 -23 -5 -7 -10 -19 -19 -27
-19 -19 0 -57 38 -52 53 3 10 -26 47 -37 47 -3 0 1 -12 9 -27 17 -32 12 -41
-11 -23 -21 19 -10 77 22 111 14 14 24 30 23 35 -5 30 4 35 17 9 8 -16 12 -21
9 -11 -8 26 5 106 16 106 5 0 9 -10 9 -22z m19 -299 c28 32 37 7 11 -29 -26
-37 -31 -37 -53 -1 -23 40 -21 62 4 32 l19 -24 19 22z"/>
<path d="M1418 2030 c-73 -40 -110 -121 -88 -194 24 -81 125 -147 197 -130 62
15 133 81 133 125 0 8 -9 -4 -20 -27 -71 -143 -300 -90 -300 71 0 153 189 220
286 101 16 -19 21 -23 15 -9 -35 70 -150 103 -223 63z"/>
<path d="M1440 2000 c-13 -8 -12 -13 8 -32 l22 -22 0 32 c0 34 -5 38 -30 22z"/>
<path d="M1530 1980 c0 -35 10 -38 34 -11 17 19 17 20 -3 30 -29 16 -31 14
-31 -19z"/>
<path d="M1490 1960 c0 -5 5 -10 10 -10 6 0 10 5 10 10 0 6 -4 10 -10 10 -5 0
-10 -4 -10 -10z"/>
<path d="M1377 1943 c-17 -17 -5 -33 25 -33 30 0 31 0 13 20 -19 21 -28 24
-38 13z"/>
<path d="M1430 1940 c0 -5 7 -10 16 -10 8 0 12 5 9 10 -3 6 -10 10 -16 10 -5
0 -9 -4 -9 -10z"/>
<path d="M1550 1930 c0 -5 5 -10 10 -10 6 0 10 5 10 10 0 6 -4 10 -10 10 -5 0
-10 -4 -10 -10z"/>
<path d="M1601 1926 c-9 -11 -7 -15 9 -19 15 -4 20 0 20 14 0 22 -13 25 -29 5z"/>
<path d="M1465 1906 c-34 -51 34 -95 69 -44 13 19 14 25 2 43 -20 30 -52 31
-71 1z m63 -22 c3 -23 -18 -37 -43 -28 -16 6 -20 35 -8 48 14 14 48 1 51 -20z"/>
<path d="M1490 1880 c0 -5 5 -10 10 -10 6 0 10 5 10 10 0 6 -4 10 -10 10 -5 0
-10 -4 -10 -10z"/>
<path d="M1662 1880 c0 -19 2 -27 5 -17 2 9 2 25 0 35 -3 9 -5 1 -5 -18z"/>
<path d="M1405 1880 c3 -5 10 -10 16 -10 5 0 9 5 9 10 0 6 -7 10 -16 10 -8 0
-12 -4 -9 -10z"/>
<path d="M1560 1880 c0 -5 9 -10 21 -10 11 0 17 5 14 10 -3 6 -13 10 -21 10
-8 0 -14 -4 -14 -10z"/>
<path d="M1374 1852 c-6 -4 -8 -15 -5 -25 6 -16 8 -16 29 -2 12 9 22 20 22 26
0 11 -30 12 -46 1z"/>
<path d="M1580 1842 c0 -14 36 -43 43 -35 4 3 7 15 7 25 0 13 -7 18 -25 18
-14 0 -25 -4 -25 -8z"/>
<path d="M1430 1824 c0 -8 5 -12 10 -9 6 3 10 10 10 16 0 5 -4 9 -10 9 -5 0
-10 -7 -10 -16z"/>
<path d="M1542 1829 c2 -7 10 -15 17 -17 8 -3 12 1 9 9 -2 7 -10 15 -17 17 -8
3 -12 -1 -9 -9z"/>
<path d="M1490 1805 c0 -8 5 -15 10 -15 6 0 10 7 10 15 0 8 -4 15 -10 15 -5 0
-10 -7 -10 -15z"/>
<path d="M1448 1796 c-22 -22 -23 -42 -2 -50 23 -9 26 -3 22 35 -3 31 -4 32
-20 15z"/>
<path d="M1530 1770 c0 -33 2 -35 31 -19 20 10 20 11 3 30 -24 27 -34 24 -34
-11z"/>
<path d="M1570 1413 c-3 -23 -2 -39 3 -34 5 5 7 24 5 42 -3 33 -4 33 -8 -8z"/>
<path d="M1441 1424 c0 -11 3 -14 6 -6 3 7 2 16 -1 19 -3 4 -6 -2 -5 -13z"/>
<path d="M1462 1397 c-7 -8 -7 -18 -2 -27 8 -13 11 -13 22 -1 8 9 9 11 1 7
-15 -8 -27 10 -12 20 7 4 18 -1 26 -11 7 -11 13 -14 13 -9 0 11 -21 34 -31 34
-4 0 -11 -6 -17 -13z"/>
<path d="M1803 2056 c-13 -16 -20 -33 -17 -38 4 -6 10 -5 15 3 7 11 9 10 9 -3
0 -9 -4 -20 -10 -23 -15 -9 -12 -25 4 -25 20 0 48 41 37 54 -5 6 -11 22 -13
36 l-3 25 -22 -29z"/>
<path d="M1130 1961 c0 -11 4 -22 10 -26 5 -3 7 -12 3 -20 -8 -21 15 -45 43
-45 29 0 32 20 4 27 -11 3 -20 12 -20 20 0 8 5 11 10 8 6 -3 10 1 10 9 0 9
-13 22 -30 31 -28 15 -30 14 -30 -4z"/>
<path d="M1813 1958 c-13 -6 -23 -17 -23 -25 0 -8 4 -12 9 -8 5 3 13 0 16 -6
4 -6 -2 -13 -13 -16 -11 -3 -23 -11 -26 -19 -8 -20 38 -18 58 2 18 17 22 39 6
29 -5 -3 -10 -2 -10 4 0 5 5 13 10 16 12 7 14 35 3 34 -5 0 -18 -5 -30 -11z"/>
<path d="M1150 1851 c0 -5 10 -17 22 -25 13 -9 17 -16 9 -16 -11 0 -11 -3 -1
-15 12 -15 51 -20 63 -9 12 12 -5 32 -24 27 -13 -4 -19 0 -19 11 0 10 5 14 11
10 7 -4 10 -1 7 7 -5 16 -68 25 -68 10z"/>
<path d="M1770 1845 c-11 -13 -10 -14 5 -9 13 5 16 3 13 -7 -3 -8 -13 -14 -24
-14 -30 0 -23 -30 9 -33 15 -2 28 1 28 7 1 6 2 15 3 21 0 5 7 15 14 22 6 6 12
16 12 20 0 14 -47 9 -60 -7z"/>
<path d="M1200 1762 c0 -6 7 -13 16 -16 8 -3 13 -10 9 -16 -7 -11 38 -24 57
-17 8 4 5 8 -10 13 -13 4 -21 13 -20 23 2 11 -6 17 -24 19 -16 2 -28 -1 -28
-6z"/>
<path d="M1726 1761 c-4 -5 0 -12 6 -14 8 -4 4 -8 -9 -12 -31 -10 -29 -27 2
-23 14 2 24 7 23 11 -2 5 5 13 15 18 9 6 15 14 12 20 -8 12 -42 12 -49 0z"/>
<path d="M1253 1683 c9 -11 17 -24 17 -30 0 -13 28 -25 41 -17 16 10 10 24
-11 24 -14 0 -20 6 -18 18 2 12 -5 18 -22 21 -24 3 -24 2 -7 -16z"/>
<path d="M1703 1693 c-7 -3 -10 -10 -7 -17 3 -8 -4 -16 -18 -19 -17 -5 -20 -9
-11 -18 15 -15 56 -1 49 16 -2 7 2 16 10 19 31 12 10 30 -23 19z"/>
<path d="M1810 1651 c0 -11 -13 -27 -29 -37 -50 -29 -66 -103 -20 -89 27 9 35
-20 14 -51 -13 -20 -14 -29 -5 -38 9 -8 16 -5 30 11 19 24 17 55 -6 74 -22 18
-17 63 10 86 17 15 23 28 19 42 -7 26 -13 27 -13 2z"/>
<path d="M1160 1641 c0 -10 11 -28 25 -41 30 -28 32 -51 5 -75 -38 -34 -13
-117 25 -85 14 12 14 15 0 30 -8 9 -15 26 -15 38 0 17 5 21 22 19 17 -1 24 4
26 22 3 19 -7 35 -42 67 -34 31 -46 37 -46 25z"/>
<path d="M1280 1611 c0 -5 7 -12 16 -15 8 -3 12 -11 8 -17 -7 -12 12 -29 34
-29 17 0 15 29 -2 36 -8 3 -12 12 -9 20 4 10 -3 14 -21 14 -14 0 -26 -4 -26
-9z"/>
<path d="M1654 1608 c-5 -7 -3 -8 6 -3 8 5 11 3 8 -6 -3 -8 -11 -13 -17 -11
-6 1 -11 -7 -11 -18 0 -24 22 -26 40 -5 7 8 9 15 4 15 -4 0 -3 5 4 12 7 7 12
16 12 20 0 12 -38 9 -46 -4z"/>
<path d="M1170 1573 c0 -11 -7 -28 -15 -39 -21 -28 -19 -87 5 -109 24 -22 25
-17 5 21 -19 38 -19 46 5 77 22 27 26 52 10 62 -5 3 -10 -2 -10 -12z"/>
<path d="M1795 1569 c-5 -14 0 -28 14 -43 25 -26 27 -63 5 -94 -16 -24 -4 -31
15 -9 24 30 23 72 -2 120 -22 41 -26 45 -32 26z"/>
<path d="M1305 1530 c3 -5 13 -10 21 -10 8 0 12 5 9 10 -3 6 -13 10 -21 10 -8
0 -12 -4 -9 -10z"/>
<path d="M1650 1530 c0 -5 7 -10 15 -10 8 0 15 5 15 10 0 6 -7 10 -15 10 -8 0
-15 -4 -15 -10z"/>
<path d="M1300 1496 c0 -21 21 -31 31 -15 5 8 3 17 -4 21 -18 12 -27 10 -27
-6z"/>
<path d="M1655 1500 c-11 -17 5 -32 21 -19 8 6 14 15 14 20 0 12 -27 11 -35
-1z"/>
<path d="M1271 1466 c-8 -10 -9 -16 -1 -21 5 -3 10 -1 10 5 0 6 5 8 10 5 6 -3
10 -2 10 4 0 17 -17 21 -29 7z"/>
<path d="M1687 1473 c-12 -11 -7 -21 13 -26 11 -3 20 -2 20 3 0 12 -26 31 -33
23z"/>
<path d="M1234 1436 c-8 -22 3 -33 18 -18 9 9 9 15 0 24 -9 9 -13 7 -18 -6z"/>
<path d="M1727 1434 c-12 -13 -8 -20 14 -21 11 -1 19 3 17 9 -5 15 -22 21 -31
12z"/>
<path d="M1197 1362 c-20 -2 -36 -6 -33 -10 6 -10 136 -2 136 9 0 5 -15 8 -32
6 -18 -1 -50 -3 -71 -5z"/>
<path d="M1330 1361 c0 -5 14 -24 31 -42 16 -18 35 -42 42 -54 19 -33 81 -114
89 -115 12 0 98 115 98 133 0 9 6 17 13 17 14 0 59 61 51 69 -7 7 -67 -60
-119 -134 -38 -54 -40 -56 -55 -37 -8 10 -42 53 -75 95 -55 72 -75 90 -75 68z"/>
<path d="M1686 1362 c-7 -12 126 -23 139 -11 5 5 -13 9 -47 9 -31 0 -63 3 -71
6 -8 3 -18 1 -21 -4z"/>
<path d="M1193 1323 c-66 -4 -94 -21 -69 -42 9 -8 44 -11 98 -9 81 3 83 4 83
28 0 28 -6 29 -112 23z"/>
<path d="M1323 1236 c-3 -137 -34 -243 -99 -333 -15 -21 -15 -23 1 -23 10 0
15 3 12 7 -4 3 -2 12 4 19 8 9 18 10 35 3 34 -12 40 -11 26 3 -7 7 -12 18 -12
26 0 16 31 13 95 -11 52 -19 202 -14 244 7 16 9 39 16 51 16 21 0 27 -14 10
-25 -22 -13 -8 -23 25 -18 28 4 35 2 35 -11 0 -9 5 -16 10 -16 14 0 12 8 -9
38 -59 85 -91 201 -91 333 l0 81 -25 -31 c-24 -28 -26 -35 -20 -103 4 -40 11
-97 16 -127 12 -70 12 -67 -8 -68 -10 0 -44 -7 -76 -14 -51 -12 -66 -11 -124
4 -36 9 -70 14 -75 11 -6 -4 -8 1 -4 12 11 39 26 151 26 204 0 42 -5 62 -23
83 l-22 28 -2 -95z"/>
<path d="M1693 1323 c-7 -3 -13 -16 -13 -29 0 -25 0 -25 92 -22 88 3 106 10
90 34 -7 11 -147 25 -169 17z"/>
<path d="M1160 1240 c0 -12 124 -10 143 2 6 4 -23 8 -65 8 -45 0 -78 -4 -78
-10z"/>
<path d="M1690 1240 c20 -13 130 -13 130 0 0 6 -31 10 -72 10 -51 0 -68 -3
-58 -10z"/>
<path d="M1568 1211 c-5 -14 -59 -81 -90 -111 -25 -25 -25 -28 -10 -41 9 -8
21 -15 26 -16 5 -1 12 -6 16 -12 8 -13 70 -3 70 11 0 5 -4 7 -9 4 -5 -3 -12 2
-16 12 -6 16 -7 16 -20 -2 -12 -16 -17 -17 -30 -6 -8 7 -15 18 -15 24 0 6 4 5
9 -3 5 -7 14 -10 20 -7 16 10 14 26 -4 26 -8 0 -15 5 -15 10 0 14 13 13 28 -2
9 -9 15 -9 24 0 9 9 7 13 -5 18 -9 3 -17 11 -17 17 0 5 9 2 20 -8 24 -21 22
-24 25 43 2 51 0 62 -7 43z m2 -51 c0 -5 -4 -10 -10 -10 -5 0 -10 5 -10 10 0
6 5 10 10 10 6 0 10 -4 10 -10z"/>
<path d="M1104 1160 c-28 -42 -30 -51 -17 -61 21 -18 43 -64 43 -91 0 -13 -8
-34 -17 -47 l-16 -24 38 6 c37 6 69 28 85 58 12 21 1 59 -17 59 -8 0 -11 -5
-7 -11 4 -7 -1 -10 -12 -7 -13 2 -19 12 -19 28 0 20 6 26 29 28 16 2 33 -1 39
-7 27 -27 67 -7 67 34 0 11 -34 29 -52 26 -4 0 -22 6 -40 14 -27 12 -25 20 3
17 4 -1 22 3 40 8 22 7 37 6 46 -1 10 -9 13 -8 13 5 0 14 -13 16 -87 15 l-88
0 -31 -49z"/>
<path d="M1408 1188 c-4 -21 -2 -25 16 -21 19 4 19 3 -4 -16 -22 -18 -23 -20
-7 -26 9 -4 17 -13 17 -21 0 -18 18 -18 36 0 17 18 17 22 0 43 -8 10 -23 29
-34 42 l-19 24 -5 -25z m47 -58 c3 -5 1 -10 -4 -10 -6 0 -11 5 -11 10 0 6 2
10 4 10 3 0 8 -4 11 -10z"/>
<path d="M1680 1194 c0 -13 3 -15 11 -7 11 11 62 5 55 -6 -3 -4 12 -5 32 -4
l37 4 -31 -15 c-17 -7 -45 -17 -62 -21 -27 -6 -32 -11 -32 -37 0 -33 0 -33 83
-12 16 4 33 2 41 -5 17 -14 9 -51 -11 -51 -8 0 -11 5 -8 10 3 6 -1 10 -10 10
-20 0 -29 -23 -21 -55 8 -31 60 -65 100 -65 27 0 28 1 13 18 -28 32 -26 76 8
126 l25 38 -24 28 c-13 16 -26 35 -28 42 -3 9 -32 14 -91 16 -78 4 -87 2 -87
-14z"/>
<path d="M1383 1155 c0 -22 2 -30 4 -17 2 12 2 30 0 40 -3 9 -5 -1 -4 -23z"/>
<path d="M1601 1119 c1 -19 5 -45 9 -59 6 -16 7 -6 3 30 -7 63 -13 80 -12 29z"/>
<path d="M1400 1097 c0 -9 -2 -21 -5 -29 -8 -21 7 -35 48 -42 l38 -7 -17 26
c-16 25 -42 29 -37 7 2 -6 -4 -9 -12 -6 -19 8 -19 24 0 24 8 0 15 3 15 6 0 3
-7 12 -15 20 -13 14 -15 14 -15 1z"/>
<path d="M1571 1094 c-7 -8 -11 -16 -10 -17 2 -2 11 -8 20 -15 13 -10 15 -8
11 18 -2 17 -5 30 -6 30 0 -1 -7 -8 -15 -16z"/>
<path d="M1372 1075 c0 -16 2 -22 5 -12 2 9 2 23 0 30 -3 6 -5 -1 -5 -18z"/>
<path d="M1380 1020 c8 -5 22 -9 30 -9 10 0 8 3 -5 9 -27 12 -43 12 -25 0z"/>
<path d="M1580 1020 c-18 -12 -2 -12 25 0 13 6 15 9 5 9 -8 0 -22 -4 -30 -9z"/>
<path d="M1457 1003 c18 -2 50 -2 70 0 21 2 7 4 -32 4 -38 0 -55 -2 -38 -4z"/>
<path d="M2061 2093 c2 -24 16 -40 31 -34 14 5 13 9 -8 24 -13 10 -24 14 -23
10z"/>
<path d="M616 1681 c-4 -7 -5 -15 -2 -18 9 -9 19 4 14 18 -4 11 -6 11 -12 0z"/>
<path d="M645 1630 c10 -11 20 -20 23 -20 3 0 -3 9 -13 20 -10 11 -20 20 -23
20 -3 0 3 -9 13 -20z"/>
<path d="M671 1584 c0 -11 3 -14 6 -6 3 7 2 16 -1 19 -3 4 -6 -2 -5 -13z"/>
<path d="M2360 1680 c0 -19 3 -21 12 -12 9 9 9 15 0 24 -9 9 -12 7 -12 -12z"/>
<path d="M2381 1644 c0 -11 3 -14 6 -6 3 7 2 16 -1 19 -3 4 -6 -2 -5 -13z"/>
<path d="M2334 1628 l-19 -23 23 19 c21 18 27 26 19 26 -2 0 -12 -10 -23 -22z"/>
<path d="M932 1512 c-29 -58 -24 -62 10 -6 15 24 24 45 20 47 -4 3 -17 -16
-30 -41z"/>
<path d="M2028 1554 c-4 -5 7 -27 23 -48 16 -22 29 -35 29 -29 0 6 -8 21 -19
34 -10 13 -20 31 -23 39 -2 8 -7 10 -10 4z"/>
<path d="M2195 1160 c3 -5 8 -10 11 -10 2 0 4 5 4 10 0 6 -5 10 -11 10 -5 0
-7 -4 -4 -10z"/>
<path d="M1024 785 c11 -8 27 -15 35 -15 10 1 7 6 -9 15 -33 19 -50 18 -26 0z"/>
<path d="M1260 685 c-7 -9 -11 -18 -8 -20 3 -3 11 1 18 10 7 9 11 18 8 20 -3
3 -11 -1 -18 -10z"/>
<path d="M1390 693 c0 -5 9 -14 20 -21 11 -7 20 -8 20 -2 0 5 -9 14 -20 20
-11 6 -20 7 -20 3z"/>
<path d="M2197 2490 c-15 -12 -26 -25 -23 -28 3 -2 12 1 21 8 19 16 19 9 -2
-51 -12 -34 -14 -52 -7 -59 8 -8 23 7 54 50 28 41 39 65 32 72 -6 6 -17 -1
-32 -22 -24 -34 -38 -34 -20 0 6 11 10 28 8 36 -2 13 -8 12 -31 -6z"/>
<path d="M710 2463 c0 -11 14 -32 30 -48 35 -33 37 -70 5 -70 -13 0 -21 8 -23
22 -2 14 -8 20 -18 16 -11 -4 -13 2 -8 26 6 27 4 31 -14 31 -12 0 -26 -9 -32
-19 -8 -16 -3 -27 33 -65 23 -25 47 -46 52 -46 18 1 65 49 65 66 0 15 -63 95
-82 102 -4 2 -8 -5 -8 -15z m-20 -48 c0 -8 -4 -15 -9 -15 -13 0 -22 16 -14 24
11 11 23 6 23 -9z"/>
<path d="M567 2436 c3 -22 1 -36 -8 -41 -7 -5 -14 -4 -17 3 -5 15 -39 16 -48
1 -3 -6 0 -18 9 -26 32 -33 95 22 83 72 -10 37 -26 30 -19 -9z m-37 -44 c0
-13 -12 -22 -22 -16 -10 6 -1 24 13 24 5 0 9 -4 9 -8z"/>
<path d="M2302 2413 c-9 -3 -7 -12 8 -33 18 -26 18 -29 3 -41 -9 -8 -24 -13
-34 -11 -21 4 -31 -11 -23 -32 9 -23 47 -20 72 7 26 28 27 40 6 72 -9 14 -12
25 -8 25 5 0 15 -9 22 -20 7 -11 20 -20 29 -20 11 0 7 8 -15 30 -32 30 -37 32
-60 23z m-14 -104 c-2 -6 -8 -10 -13 -10 -5 0 -11 4 -13 10 -2 6 4 11 13 11 9
0 15 -5 13 -11z"/>
<path d="M566 2339 c-14 -11 -26 -30 -26 -42 0 -21 1 -21 13 3 7 14 21 26 32
28 18 2 19 2 3 -8 -27 -16 -22 -53 11 -84 25 -24 32 -26 51 -16 30 16 22 45
-14 45 -35 0 -59 30 -37 45 11 6 26 0 52 -21 41 -33 49 -35 49 -15 0 14 -81
86 -98 86 -5 0 -21 -9 -36 -21z m86 -94 c0 -5 -5 -11 -11 -13 -6 -2 -11 4 -11
13 0 9 5 15 11 13 6 -2 11 -8 11 -13z"/>
<path d="M2405 2293 c22 -53 12 -79 -26 -68 -9 3 -21 -1 -28 -9 -9 -11 -8 -17
4 -30 21 -21 24 -20 64 12 33 28 33 28 17 60 -10 19 -12 32 -6 32 6 0 14 -8
17 -17 7 -19 22 -33 36 -33 9 0 -22 51 -38 62 -5 4 -18 8 -29 8 -13 0 -16 -5
-11 -17z m-25 -88 c0 -8 -4 -15 -10 -15 -5 0 -10 7 -10 15 0 8 5 15 10 15 6 0
10 -7 10 -15z"/>
<path d="M472 2228 c-7 -7 -12 -19 -11 -27 0 -11 2 -12 6 -3 8 20 29 14 78
-20 31 -22 48 -29 56 -21 7 7 -6 21 -43 46 -58 40 -68 43 -86 25z"/>
<path d="M2483 2178 c-4 -7 -21 -22 -36 -31 -19 -13 -27 -25 -25 -40 4 -28 43
-31 43 -4 0 21 30 41 45 32 14 -9 12 9 -2 24 -11 10 -9 12 7 9 13 -2 21 -12
23 -28 2 -21 -6 -30 -47 -55 -38 -21 -48 -32 -40 -41 6 -7 18 -10 27 -7 14 5
15 3 5 -8 -17 -17 -16 -38 0 -45 14 -5 119 60 125 77 6 14 -31 10 -52 -6 -21
-16 -56 -20 -56 -7 0 4 13 16 29 25 17 10 33 27 36 38 14 43 -60 102 -82 67z
m-23 -78 c0 -5 -7 -10 -15 -10 -8 0 -15 5 -15 10 0 6 7 10 15 10 8 0 15 -4 15
-10z m50 -95 c0 -8 -4 -15 -9 -15 -13 0 -22 16 -14 24 11 11 23 6 23 -9z"/>
<path d="M415 2140 c-7 -12 30 -46 67 -61 21 -9 28 -18 26 -33 -4 -29 -36 -33
-46 -5 -6 15 -11 18 -16 11 -11 -18 -25 -5 -19 17 6 24 -22 35 -42 15 -20 -20
-5 -48 32 -63 16 -6 35 -16 44 -22 9 -7 23 -9 32 -6 20 8 50 64 43 82 -6 17
-115 75 -121 65z m5 -70 c0 -5 -7 -10 -15 -10 -8 0 -15 5 -15 10 0 6 7 10 15
10 8 0 15 -4 15 -10z"/>
<path d="M342 1988 c-16 -16 -15 -45 0 -54 9 -6 5 -10 -12 -14 -26 -6 -39 -35
-22 -52 6 -6 16 -5 29 2 15 10 27 9 57 -4 36 -15 56 -14 56 3 0 5 -25 25 -55
45 -50 33 -69 56 -46 56 5 0 30 -9 56 -20 26 -11 53 -20 61 -20 28 0 13 21
-28 39 -68 29 -83 32 -96 19z m-10 -103 c0 -5 -5 -11 -11 -13 -6 -2 -11 4 -11
13 0 9 5 15 11 13 6 -2 11 -8 11 -13z"/>
<path d="M2601 1977 c-10 -24 -65 -52 -82 -41 -15 9 -10 -18 11 -65 18 -39 22
-43 47 -36 57 14 117 45 106 56 -7 7 -28 3 -68 -12 -47 -18 -59 -19 -66 -8
-15 24 -11 29 47 54 46 21 55 28 52 47 -4 32 -36 35 -47 5z m31 -2 c0 -5 -5
-11 -11 -13 -6 -2 -11 4 -11 13 0 9 5 15 11 13 6 -2 11 -8 11 -13z"/>
<path d="M2476 1839 c-8 -40 -5 -42 28 -29 34 12 33 53 0 58 -17 2 -23 -4 -28
-29z m35 8 c-1 -12 -15 -9 -19 4 -3 6 1 10 8 8 6 -3 11 -8 11 -12z"/>
<path d="M204 1832 c-23 -15 -34 -50 -24 -76 11 -30 28 -34 36 -8 3 9 14 34
25 55 l20 37 -23 0 c-13 0 -28 -4 -34 -8z m22 -24 c-9 -12 -16 -30 -16 -40 0
-10 -4 -18 -10 -18 -17 0 -11 39 10 60 27 27 35 25 16 -2z"/>
<path d="M2748 1779 c3 -52 6 -59 20 -53 10 3 27 9 40 11 24 6 31 23 8 23 -8
0 -13 10 -13 25 0 30 -19 55 -42 55 -13 0 -15 -10 -13 -61z m36 15 c3 -11 0
-28 -7 -38 -12 -17 -14 -14 -15 29 0 46 10 51 22 9z"/>
<path d="M276 1798 c-19 -26 -20 -47 -5 -68 9 -12 10 -11 6 7 -3 12 0 29 7 38
16 22 76 10 76 -15 0 -21 29 -35 43 -21 5 5 7 19 5 32 -2 18 -13 25 -53 36
-64 16 -61 17 -79 -9z m122 -39 c-2 -6 -8 -10 -13 -10 -5 0 -11 4 -13 10 -2 6
4 11 13 11 9 0 15 -5 13 -11z"/>
<path d="M2662 1790 c6 -41 -14 -58 -48 -40 -28 16 -51 2 -41 -24 7 -18 43
-21 81 -6 20 7 26 16 26 40 0 16 5 30 11 30 7 0 9 -9 5 -24 -3 -14 0 -28 8
-35 12 -10 13 -5 11 26 -4 34 -25 63 -48 63 -5 0 -7 -14 -5 -30z m-52 -50 c0
-5 -7 -10 -15 -10 -8 0 -15 5 -15 10 0 6 7 10 15 10 8 0 15 -4 15 -10z"/>
<path d="M232 1582 c-24 -23 -29 -36 -26 -62 6 -48 45 -81 90 -75 99 12 98
151 0 162 -28 3 -41 -2 -64 -25z m92 -18 c17 -16 21 -51 8 -70 -4 -6 -17 -14
-29 -18 -29 -9 -76 34 -67 61 15 41 60 55 88 27z"/>
<path d="M262 1561 c-8 -5 -12 -21 -10 -37 3 -26 7 -29 38 -29 29 0 36 4 38
23 6 41 -31 65 -66 43z m43 -32 c0 -28 -29 -38 -39 -13 -7 19 11 47 28 41 6
-2 11 -14 11 -28z"/>
<path d="M2670 1602 c-26 -9 -57 -53 -55 -77 3 -23 32 -74 44 -76 57 -10 72
-7 101 21 25 24 29 34 23 62 -10 55 -64 88 -113 70z m56 -30 c23 -15 32 -45
21 -69 -5 -13 -14 -23 -18 -23 -4 0 -14 -3 -23 -6 -9 -3 -26 5 -41 20 -22 22
-24 29 -14 48 14 27 28 38 49 38 8 0 20 -4 26 -8z"/>
<path d="M2670 1556 c-6 -8 -10 -25 -8 -38 2 -19 9 -23 38 -23 29 0 36 4 38
23 4 28 -14 52 -38 52 -10 0 -23 -7 -30 -14z m49 -10 c13 -16 4 -46 -14 -46
-7 0 -18 7 -25 15 -10 12 -10 18 0 30 15 19 24 19 39 1z"/>
<path d="M286 1309 c-13 -32 -20 -39 -34 -34 -15 5 -16 5 -1 -10 22 -22 46 -9
60 32 8 26 16 34 29 30 13 -3 17 0 13 9 -3 8 -15 14 -28 14 -17 0 -27 -10 -39
-41z"/>
<path d="M2610 1333 c0 -10 4 -14 8 -8 4 6 11 13 16 18 5 4 2 7 -7 7 -10 0
-17 -8 -17 -17z"/>
<path d="M231 1313 c0 -16 3 -22 6 -13 3 8 10 21 16 28 7 8 5 12 -7 12 -11 0
-16 -8 -15 -27z"/>
<path d="M2715 1307 c0 -26 -3 -31 -20 -29 -27 5 -32 11 -16 21 9 6 5 10 -14
13 -19 4 -23 2 -16 -5 18 -18 13 -25 -14 -19 -14 2 -25 9 -26 16 -1 6 -4 0 -8
-14 -7 -24 -4 -25 53 -36 34 -7 63 -10 64 -9 9 8 13 83 6 88 -5 3 -9 -9 -9
-26z"/>
<path d="M340 1285 c-11 -13 -10 -14 4 -9 9 3 16 10 16 15 0 13 -6 11 -20 -6z"/>
<path d="M320 1238 c-47 -13 -60 -26 -59 -57 0 -24 1 -25 9 -5 6 15 24 25 59
34 36 8 48 16 44 26 -6 16 -5 16 -53 2z"/>
<path d="M2582 1210 c-18 -29 -15 -74 6 -93 42 -39 112 -5 112 53 0 34 -34 61
-44 34 -9 -23 -8 -24 15 -24 15 0 20 -5 17 -22 -2 -17 -11 -24 -32 -26 -65 -8
-102 49 -54 82 15 11 18 16 8 16 -9 0 -21 -9 -28 -20z"/>
<path d="M370 1160 c-12 -8 -10 -10 8 -10 13 0 20 4 17 10 -7 12 -6 12 -25 0z"/>
<path d="M280 1140 c8 -5 20 -10 25 -10 6 0 3 5 -5 10 -8 5 -19 10 -25 10 -5
0 -3 -5 5 -10z"/>
<path d="M328 1143 c7 -3 16 -2 19 1 4 3 -2 6 -13 5 -11 0 -14 -3 -6 -6z"/>
<path d="M350 1107 c-30 -11 -56 -21 -58 -22 -1 -1 0 -9 4 -18 4 -11 11 -13
22 -7 40 20 87 38 91 35 11 -12 -11 -37 -29 -32 -24 6 -26 -5 -5 -23 17 -14
43 -7 51 13 3 8 -1 28 -8 45 l-13 30 -55 -21z"/>
<path d="M2540 1090 c0 -5 7 -7 15 -4 8 4 15 8 15 10 0 2 -7 4 -15 4 -8 0 -15
-4 -15 -10z"/>
<path d="M2646 1053 c7 -28 -10 -46 -35 -38 -25 8 -28 25 -3 25 14 0 15 2 2
10 -21 14 -30 12 -30 -5 0 -12 -5 -13 -27 -4 -19 7 -28 7 -34 -3 -6 -9 6 -18
39 -31 26 -10 52 -23 58 -28 7 -5 16 3 27 27 19 38 22 64 8 64 -5 0 -7 -8 -5
-17z"/>
<path d="M384 1000 c-34 -18 -49 -31 -45 -39 6 -9 14 -9 35 0 23 11 29 10 37
-2 13 -20 12 -23 -16 -39 -13 -9 -21 -20 -17 -26 5 -7 25 -2 63 16 47 22 55
29 47 43 -8 15 -11 16 -33 1 -22 -14 -24 -14 -35 5 -9 18 -7 23 14 32 14 7 22
17 19 25 -6 17 -7 17 -69 -16z"/>
<path d="M2590 951 c0 -5 5 -13 10 -16 6 -3 10 -2 10 4 0 5 -4 13 -10 16 -5 3
-10 2 -10 -4z"/>
<path d="M2467 936 c-4 -11 11 -24 49 -45 52 -28 55 -28 64 -10 8 15 7 19 -3
19 -8 0 -35 11 -60 25 -37 21 -46 23 -50 11z"/>
<path d="M487 849 c-4 -14 -11 -20 -20 -16 -10 4 -13 0 -10 -13 3 -10 0 -21
-6 -24 -7 -5 -7 -13 1 -26 11 -17 15 -14 45 36 39 64 39 64 14 64 -11 0 -21
-9 -24 -21z"/>
<path d="M438 853 c7 -3 16 -2 19 1 4 3 -2 6 -13 5 -11 0 -14 -3 -6 -6z"/>
<path d="M2406 843 c-12 -13 -5 -22 43 -56 l49 -36 16 24 c13 20 14 23 2 19
-8 -3 -35 8 -59 25 -25 17 -47 27 -51 24z"/>
<path d="M2530 830 c0 -19 3 -21 12 -12 9 9 9 15 0 24 -9 9 -12 7 -12 -12z"/>
<path d="M540 772 c-19 -20 -23 -25 -7 -12 25 22 27 22 27 4 -1 -10 -5 -38 -9
-61 -5 -24 -5 -43 -1 -43 11 0 41 36 35 42 -3 3 -2 24 4 46 13 60 -5 69 -49
24z"/>
<path d="M2364 775 c-13 -10 -14 -13 -3 -9 24 8 81 -44 77 -70 -2 -11 -10 -22
-19 -24 -21 -4 -79 45 -79 66 -1 16 -1 16 -10 0 -20 -34 20 -88 65 -88 22 0
65 45 65 68 0 46 -62 83 -96 57z"/>
<path d="M485 730 c3 -5 8 -10 11 -10 2 0 4 5 4 10 0 6 -5 10 -11 10 -5 0 -7
-4 -4 -10z"/>
<path d="M614 718 l-19 -23 23 19 c21 18 27 26 19 26 -2 0 -12 -10 -23 -22z"/>
<path d="M618 665 l-46 -45 30 -25 c37 -32 73 -30 72 3 0 14 5 22 17 22 29 0
30 29 1 60 l-27 30 -47 -45z m72 -5 c0 -14 -7 -20 -21 -20 -14 0 -19 -5 -16
-14 6 -16 -11 -36 -30 -36 -22 0 -15 21 20 56 37 39 47 42 47 14z"/>
<path d="M2285 690 c-3 -5 1 -10 10 -10 9 0 13 5 10 10 -3 6 -8 10 -10 10 -2
0 -7 -4 -10 -10z"/>
<path d="M2250 665 c-17 -20 -15 -74 2 -91 26 -25 91 -18 102 11 5 13 2 13
-17 0 -21 -13 -25 -13 -46 1 -28 20 -41 54 -29 77 11 21 5 22 -12 2z"/>
<path d="M712 586 c-18 -24 -32 -48 -32 -54 0 -15 36 -42 57 -42 18 0 83 68
83 86 0 4 -14 -11 -32 -34 -21 -28 -40 -42 -55 -42 -33 0 -30 32 8 74 27 32
32 56 10 56 -4 0 -22 -20 -39 -44z"/>
<path d="M812 502 c-24 -40 -29 -58 -20 -63 8 -5 22 9 42 42 31 49 51 59 51
23 0 -12 -8 -20 -22 -22 -25 -4 -31 -38 -13 -73 16 -30 26 -23 22 16 -3 26 0
35 11 35 8 0 20 7 27 15 14 17 4 33 -39 64 l-26 18 -33 -55z"/>
<path d="M2096 542 c-3 -5 8 -28 24 -51 17 -22 30 -46 30 -51 0 -7 6 -7 20 0
19 10 18 12 -16 58 -39 51 -49 58 -58 44z"/>
<path d="M2214 486 c-10 -22 -10 -24 6 -14 10 7 16 18 13 25 -7 17 -6 17 -19
-11z"/>
<path d="M2020 476 c0 -16 7 -25 21 -29 15 -4 20 -11 15 -22 -3 -9 -2 -13 4
-10 5 3 18 0 29 -7 15 -9 24 -9 31 -2 8 8 -5 23 -45 53 -53 40 -55 41 -55 17z"/>
<path d="M926 433 c-21 -44 -24 -58 -14 -64 9 -6 21 7 40 44 32 61 32 63 15
70 -9 3 -23 -15 -41 -50z"/>
<path d="M1945 450 c3 -5 8 -10 11 -10 2 0 4 5 4 10 0 6 -5 10 -11 10 -5 0 -7
-4 -4 -10z"/>
<path d="M1044 425 c3 -9 6 -39 6 -67 0 -44 2 -49 15 -38 23 19 15 114 -10
119 -13 2 -16 -1 -11 -14z"/>
<path d="M1866 422 c-3 -5 26 -25 64 -45 39 -20 70 -33 69 -29 0 4 -9 25 -20
47 -10 22 -16 29 -13 16 l6 -24 -36 21 c-39 23 -61 27 -70 14z"/>
<path d="M2032 390 c0 -19 2 -27 5 -17 2 9 2 25 0 35 -3 9 -5 1 -5 -18z"/>
<path d="M1121 388 c-14 -23 -14 -23 8 -4 22 20 25 26 13 26 -4 0 -13 -10 -21
-22z"/>
<path d="M1757 382 c-35 -38 -6 -112 43 -112 17 0 17 2 -6 26 -21 20 -25 33
-22 65 2 21 3 39 2 39 0 0 -8 -8 -17 -18z"/>
<path d="M1827 369 c8 -16 13 -43 11 -60 -4 -27 -4 -28 14 -12 23 21 23 65 0
86 -30 27 -42 21 -25 -14z"/>
<path d="M1174 382 c-33 -22 -39 -77 -11 -100 10 -8 12 -2 12 28 0 24 8 46 19
59 14 16 16 21 5 21 -8 0 -19 -4 -25 -8z"/>
<path d="M1235 374 c11 -12 14 -25 9 -48 -8 -40 -12 -46 -38 -56 -20 -8 -19
-9 6 -9 17 -1 34 8 47 25 15 20 21 22 21 10 0 -18 34 -56 51 -56 8 0 8 4 0 14
-7 8 -11 32 -9 53 2 28 9 41 28 50 25 13 25 13 2 13 -13 0 -34 -11 -47 -24
l-25 -25 -6 25 c-4 13 -14 29 -24 34 -28 15 -34 12 -15 -6z"/>
<path d="M1679 375 c-3 -2 -1 -32 5 -65 8 -47 14 -60 25 -57 9 2 15 10 13 17
-2 8 -6 36 -9 62 -5 42 -19 59 -34 43z"/>
<path d="M1578 363 c-21 -2 -38 -8 -38 -13 0 -5 7 -7 16 -3 22 8 34 -14 34
-64 0 -36 3 -43 20 -43 11 0 18 5 16 13 -3 6 -7 34 -10 61 -6 45 -4 48 14 43
11 -3 20 -1 20 4 0 5 -8 8 -17 7 -10 -1 -35 -3 -55 -5z"/>
<path d="M1890 365 c0 -5 5 -17 10 -25 5 -8 10 -10 10 -5 0 6 -5 17 -10 25 -5
8 -10 11 -10 5z"/>
<path d="M1380 356 c0 -2 7 -9 15 -16 12 -10 15 -10 15 4 0 9 -7 16 -15 16 -8
0 -15 -2 -15 -4z"/>
<path d="M1462 324 c-8 -15 -8 -23 -2 -19 10 6 37 -51 32 -67 -1 -5 9 -8 22
-8 l24 0 -24 50 c-13 27 -24 54 -24 60 0 19 -17 10 -28 -16z"/>
<path d="M1432 265 c-14 -31 -15 -35 -3 -35 8 0 23 51 17 58 -2 1 -8 -9 -14
-23z"/>
</g>
</svg>
