<svg xmlns="http://www.w3.org/2000/svg" xmlns:xlink="http://www.w3.org/1999/xlink" width="750" zoomAndPan="magnify" viewBox="0 0 562.5 562.499982" height="750" preserveAspectRatio="xMidYMid meet" version="1.2"><defs><clipPath id="19b96cf2e3"><path d="M 457 151 L 501.316406 151 L 501.316406 196 L 457 196 Z M 457 151 "/></clipPath></defs><g id="62dae8de1b"><path style=" stroke:none;fill-rule:nonzero;fill:#dac0b7;fill-opacity:1;" d="M 477.164062 378.871094 L 453.171875 354.195312 C 450.445312 352.089844 449.539062 346.070312 452.726562 344.753906 L 481.414062 332.949219 C 484.601562 331.644531 488.105469 336.59375 487.648438 340.007812 L 488.003906 374.390625 L 477.164062 378.871094 "/><path style="fill:none;stroke-width:40;stroke-linecap:round;stroke-linejoin:round;stroke:#000000;stroke-opacity:1;stroke-miterlimit:10;" d="M 2522.194188 1046.806057 L 2312.792893 1262.115752 C 2288.995742 1280.487119 2281.086087 1333.010823 2308.906253 1344.497188 L 2559.287743 1447.499546 C 2587.107908 1458.883659 2617.689634 1415.699017 2613.700713 1385.909453 L 2616.803207 1085.900599 Z M 2522.194188 1046.806057 " transform="matrix(0.114575,0,0,-0.114606,188.183252,498.841341)"/><path style=" stroke:none;fill-rule:nonzero;fill:#000000;fill-opacity:1;" d="M 487.980469 373.773438 L 488.039062 381.726562 C 487.566406 385.082031 484.988281 386.136719 482.296875 384.085938 L 476.753906 378.425781 L 487.980469 373.773438 "/><path style="fill:none;stroke-width:40;stroke-linecap:round;stroke-linejoin:round;stroke:#000000;stroke-opacity:1;stroke-miterlimit:10;" d="M 2616.598647 1091.285897 L 2617.110047 1021.890529 C 2612.984753 992.612228 2590.483149 983.375418 2566.992837 1001.303691 L 2518.614388 1050.691652 Z M 2616.598647 1091.285897 " transform="matrix(0.114575,0,0,-0.114606,188.183252,498.841341)"/><path style=" stroke:none;fill-rule:nonzero;fill:#ef2e68;fill-opacity:1;" d="M 364.882812 143.414062 C 363.804688 140.824219 365.042969 137.855469 367.621094 136.789062 L 394.578125 125.628906 C 397.167969 124.558594 400.136719 125.785156 401.203125 128.378906 L 410.6875 151.289062 C 411.753906 153.878906 410.527344 156.84375 407.9375 157.921875 L 380.980469 169.074219 C 378.390625 170.140625 375.433594 168.914062 374.355469 166.324219 L 364.882812 143.414062 "/><path style=" stroke:none;fill-rule:nonzero;fill:#000000;fill-opacity:1;" d="M 402.003906 136.300781 L 402.441406 137.359375 C 402.558594 137.640625 402.722656 137.886719 402.9375 138.101562 C 403.152344 138.316406 403.398438 138.484375 403.679688 138.601562 C 403.960938 138.714844 404.253906 138.773438 404.558594 138.773438 C 404.863281 138.773438 405.152344 138.714844 405.433594 138.601562 C 405.714844 138.484375 405.964844 138.316406 406.179688 138.101562 C 406.394531 137.886719 406.558594 137.640625 406.675781 137.359375 C 406.789062 137.078125 406.847656 136.785156 406.847656 136.484375 C 406.847656 136.179688 406.789062 135.886719 406.675781 135.605469 L 406.234375 134.546875 C 406.121094 134.265625 405.953125 134.019531 405.738281 133.804688 C 405.523438 133.589844 405.277344 133.421875 404.996094 133.304688 C 404.714844 133.191406 404.421875 133.132812 404.121094 133.132812 C 403.816406 133.132812 403.523438 133.191406 403.242188 133.304688 C 402.960938 133.421875 402.714844 133.589844 402.5 133.804688 C 402.285156 134.019531 402.117188 134.265625 402.003906 134.546875 C 401.886719 134.828125 401.828125 135.121094 401.828125 135.421875 C 401.828125 135.726562 401.886719 136.019531 402.003906 136.300781 Z M 404.632812 142.652344 L 408.570312 152.164062 C 408.863281 152.875 408.863281 153.582031 408.566406 154.296875 C 408.273438 155.007812 407.769531 155.511719 407.058594 155.804688 L 381.578125 166.347656 C 381.296875 166.460938 381.050781 166.628906 380.832031 166.84375 C 380.617188 167.058594 380.453125 167.304688 380.335938 167.585938 C 380.21875 167.867188 380.160156 168.160156 380.160156 168.460938 C 380.160156 168.765625 380.21875 169.058594 380.335938 169.339844 C 380.453125 169.621094 380.617188 169.867188 380.832031 170.085938 C 381.046875 170.300781 381.292969 170.464844 381.574219 170.582031 C 381.855469 170.699219 382.148438 170.757812 382.453125 170.757812 C 382.753906 170.757812 383.046875 170.699219 383.328125 170.582031 L 408.820312 160.039062 C 410.695312 159.257812 412.023438 157.929688 412.800781 156.050781 C 413.578125 154.171875 413.578125 152.292969 412.804688 150.410156 L 408.867188 140.898438 C 408.75 140.617188 408.585938 140.371094 408.371094 140.15625 C 408.15625 139.941406 407.90625 139.773438 407.625 139.660156 C 407.347656 139.542969 407.054688 139.484375 406.75 139.484375 C 406.445312 139.484375 406.152344 139.542969 405.871094 139.660156 C 405.59375 139.773438 405.34375 139.941406 405.128906 140.15625 C 404.914062 140.371094 404.75 140.617188 404.632812 140.898438 C 404.515625 141.179688 404.457031 141.472656 404.457031 141.777344 C 404.457031 142.082031 404.515625 142.371094 404.632812 142.652344 Z M 377.359375 166.597656 C 377.191406 166.46875 377.039062 166.324219 376.90625 166.164062 C 376.710938 165.929688 376.480469 165.742188 376.210938 165.601562 C 375.941406 165.460938 375.65625 165.375 375.355469 165.347656 C 375.050781 165.320312 374.753906 165.351562 374.464844 165.441406 C 374.175781 165.53125 373.914062 165.671875 373.679688 165.867188 C 373.445312 166.0625 373.257812 166.292969 373.117188 166.5625 C 372.976562 166.832031 372.890625 167.117188 372.863281 167.421875 C 372.835938 167.722656 372.867188 168.019531 372.957031 168.308594 C 373.046875 168.601562 373.1875 168.863281 373.382812 169.097656 C 373.738281 169.523438 374.140625 169.90625 374.585938 170.246094 C 374.828125 170.429688 375.09375 170.558594 375.386719 170.636719 C 375.683594 170.714844 375.980469 170.734375 376.28125 170.691406 C 376.582031 170.652344 376.863281 170.554688 377.125 170.402344 C 377.386719 170.246094 377.613281 170.050781 377.796875 169.808594 C 377.980469 169.566406 378.109375 169.296875 378.1875 169.003906 C 378.265625 168.710938 378.28125 168.414062 378.242188 168.113281 C 378.199219 167.808594 378.105469 167.527344 377.949219 167.265625 C 377.796875 167.003906 377.601562 166.78125 377.359375 166.597656 Z M 374.867188 161.5625 L 367 142.539062 C 366.703125 141.828125 366.703125 141.117188 366.996094 140.40625 C 367.289062 139.699219 367.789062 139.199219 368.496094 138.90625 L 395.457031 127.746094 C 396.164062 127.453125 396.875 127.453125 397.585938 127.75 C 398.292969 128.042969 398.792969 128.542969 399.082031 129.25 L 399.371094 129.949219 C 399.488281 130.230469 399.652344 130.476562 399.867188 130.691406 C 400.082031 130.90625 400.332031 131.070312 400.613281 131.1875 C 400.890625 131.304688 401.183594 131.363281 401.488281 131.363281 C 401.792969 131.363281 402.085938 131.304688 402.367188 131.1875 C 402.644531 131.070312 402.894531 130.90625 403.109375 130.691406 C 403.324219 130.476562 403.488281 130.230469 403.605469 129.949219 C 403.722656 129.667969 403.78125 129.375 403.78125 129.070312 C 403.78125 128.765625 403.722656 128.472656 403.605469 128.195312 L 403.320312 127.503906 C 402.546875 125.625 401.21875 124.292969 399.339844 123.515625 C 397.464844 122.734375 395.585938 122.734375 393.703125 123.507812 L 366.742188 134.671875 C 364.867188 135.445312 363.542969 136.773438 362.761719 138.652344 C 361.984375 140.535156 361.984375 142.414062 362.761719 144.289062 L 370.632812 163.316406 C 370.75 163.597656 370.914062 163.84375 371.128906 164.058594 C 371.34375 164.273438 371.589844 164.441406 371.871094 164.554688 C 372.152344 164.671875 372.445312 164.730469 372.75 164.730469 C 373.050781 164.730469 373.34375 164.671875 373.625 164.558594 C 373.90625 164.441406 374.15625 164.273438 374.371094 164.058594 C 374.585938 163.84375 374.75 163.597656 374.867188 163.316406 C 374.984375 163.035156 375.042969 162.742188 375.042969 162.441406 C 375.042969 162.136719 374.984375 161.84375 374.867188 161.5625 Z M 374.867188 161.5625 "/><path style=" stroke:none;fill-rule:nonzero;fill:#ee8f42;fill-opacity:1;" d="M 451.902344 352.855469 C 451.867188 352.800781 451.660156 352.457031 451.636719 352.398438 L 382.617188 185.851562 C 381.550781 183.285156 382.777344 180.339844 385.34375 179.273438 L 412.085938 168.203125 C 414.652344 167.136719 417.597656 168.363281 418.664062 170.941406 L 487.535156 337.820312 C 487.558594 337.890625 487.660156 338.496094 487.671875 338.554688 L 482.058594 334.589844 L 480.820312 341.292969 L 473.359375 337.351562 L 471.277344 345.109375 L 464.089844 340.546875 L 461.214844 349.132812 L 454.375 344.683594 L 451.902344 352.855469 "/><path style=" stroke:none;fill-rule:nonzero;fill:#000000;fill-opacity:1;" d="M 472.582031 307.601562 L 473.019531 308.660156 C 473.136719 308.941406 473.300781 309.191406 473.515625 309.40625 C 473.730469 309.621094 473.980469 309.785156 474.257812 309.902344 C 474.539062 310.019531 474.832031 310.078125 475.136719 310.078125 C 475.441406 310.078125 475.730469 310.019531 476.011719 309.90625 C 476.292969 309.789062 476.542969 309.625 476.757812 309.410156 C 476.972656 309.195312 477.136719 308.945312 477.253906 308.667969 C 477.371094 308.386719 477.429688 308.09375 477.429688 307.789062 C 477.429688 307.484375 477.371094 307.191406 477.257812 306.910156 L 476.820312 305.851562 C 476.703125 305.570312 476.539062 305.324219 476.324219 305.109375 C 476.109375 304.894531 475.863281 304.726562 475.582031 304.609375 C 475.300781 304.492188 475.007812 304.433594 474.703125 304.433594 C 474.402344 304.433594 474.109375 304.492188 473.828125 304.609375 C 473.546875 304.722656 473.296875 304.890625 473.082031 305.105469 C 472.867188 305.320312 472.703125 305.566406 472.585938 305.847656 C 472.46875 306.128906 472.410156 306.421875 472.410156 306.722656 C 472.410156 307.027344 472.46875 307.320312 472.582031 307.601562 Z M 475.207031 313.957031 L 485.414062 338.695312 L 487.535156 337.820312 L 485.359375 338.542969 C 485.335938 338.46875 485.316406 338.40625 485.308594 338.359375 C 485.3125 338.386719 485.320312 338.425781 485.328125 338.476562 C 485.34375 338.550781 485.363281 338.664062 485.390625 338.8125 C 485.40625 338.914062 485.417969 338.976562 485.425781 339.003906 L 487.671875 338.554688 L 488.992188 336.679688 L 483.378906 332.714844 C 483.128906 332.539062 482.859375 332.417969 482.5625 332.351562 C 482.265625 332.285156 481.96875 332.277344 481.667969 332.328125 C 481.367188 332.378906 481.089844 332.488281 480.832031 332.648438 C 480.578125 332.8125 480.359375 333.019531 480.183594 333.265625 C 479.992188 333.539062 479.863281 333.84375 479.804688 334.171875 L 478.566406 340.875 L 480.820312 341.292969 L 481.890625 339.265625 L 474.429688 335.324219 C 474.164062 335.179688 473.878906 335.097656 473.574219 335.066406 C 473.273438 335.039062 472.976562 335.070312 472.683594 335.160156 C 472.394531 335.25 472.132812 335.390625 471.898438 335.585938 C 471.664062 335.777344 471.476562 336.011719 471.335938 336.277344 C 471.253906 336.429688 471.191406 336.589844 471.148438 336.753906 L 469.0625 344.515625 L 471.277344 345.109375 L 472.503906 343.171875 L 465.320312 338.613281 C 465.0625 338.449219 464.785156 338.34375 464.484375 338.289062 C 464.1875 338.238281 463.886719 338.246094 463.59375 338.3125 C 463.296875 338.375 463.023438 338.496094 462.773438 338.671875 C 462.527344 338.847656 462.320312 339.0625 462.15625 339.320312 C 462.058594 339.476562 461.976562 339.644531 461.917969 339.820312 L 459.042969 348.402344 L 461.214844 349.132812 L 462.464844 347.210938 L 455.625 342.761719 C 455.371094 342.597656 455.09375 342.488281 454.792969 342.429688 C 454.496094 342.375 454.199219 342.378906 453.898438 342.441406 C 453.601562 342.503906 453.328125 342.625 453.078125 342.796875 C 452.828125 342.96875 452.621094 343.179688 452.453125 343.4375 C 452.335938 343.617188 452.246094 343.8125 452.183594 344.019531 L 449.707031 352.191406 L 451.902344 352.855469 L 453.867188 351.675781 C 453.820312 351.597656 453.777344 351.527344 453.742188 351.46875 C 453.714844 351.421875 453.695312 351.386719 453.683594 351.363281 L 453.679688 351.363281 C 453.710938 351.417969 453.738281 351.480469 453.765625 351.546875 L 384.734375 184.976562 C 384.445312 184.277344 384.445312 183.578125 384.734375 182.878906 C 385.027344 182.179688 385.523438 181.683594 386.222656 181.390625 L 412.960938 170.320312 C 413.660156 170.03125 414.359375 170.03125 415.054688 170.320312 C 415.757812 170.613281 416.253906 171.113281 416.546875 171.816406 L 469.960938 301.246094 C 470.078125 301.527344 470.242188 301.773438 470.457031 301.988281 C 470.671875 302.207031 470.917969 302.371094 471.199219 302.488281 C 471.480469 302.605469 471.773438 302.664062 472.074219 302.664062 C 472.378906 302.664062 472.671875 302.605469 472.953125 302.488281 C 473.234375 302.375 473.480469 302.207031 473.695312 301.992188 C 473.910156 301.777344 474.078125 301.53125 474.195312 301.25 C 474.3125 300.96875 474.371094 300.679688 474.371094 300.375 C 474.371094 300.070312 474.3125 299.777344 474.195312 299.496094 L 420.78125 170.066406 C 420.007812 168.191406 418.683594 166.867188 416.816406 166.089844 C 414.949219 165.3125 413.078125 165.308594 411.210938 166.085938 L 384.464844 177.15625 C 382.597656 177.933594 381.277344 179.253906 380.503906 181.121094 C 379.726562 182.992188 379.726562 184.863281 380.5 186.730469 L 449.507812 353.25 C 449.570312 353.402344 449.710938 353.664062 449.9375 354.035156 C 450.238281 354.539062 450.671875 354.878906 451.238281 355.050781 C 451.527344 355.136719 451.824219 355.167969 452.125 355.136719 C 452.429688 355.105469 452.714844 355.019531 452.980469 354.878906 C 453.25 354.734375 453.480469 354.542969 453.671875 354.308594 C 453.867188 354.074219 454.003906 353.8125 454.09375 353.519531 L 456.570312 345.347656 L 454.375 344.683594 L 453.128906 346.605469 L 459.96875 351.054688 C 460.128906 351.160156 460.304688 351.242188 460.488281 351.304688 C 460.777344 351.402344 461.070312 351.4375 461.375 351.417969 C 461.675781 351.398438 461.964844 351.320312 462.238281 351.183594 C 462.507812 351.046875 462.746094 350.867188 462.945312 350.636719 C 463.144531 350.40625 463.292969 350.148438 463.386719 349.859375 L 466.265625 341.277344 L 464.089844 340.546875 L 462.863281 342.484375 L 470.046875 347.042969 C 470.246094 347.167969 470.457031 347.261719 470.679688 347.324219 C 470.972656 347.402344 471.269531 347.421875 471.574219 347.382812 C 471.875 347.34375 472.15625 347.246094 472.417969 347.09375 C 472.683594 346.941406 472.90625 346.746094 473.09375 346.503906 C 473.277344 346.265625 473.410156 345.996094 473.488281 345.703125 L 475.574219 337.945312 L 473.359375 337.351562 L 472.289062 339.375 L 479.75 343.320312 C 479.957031 343.429688 480.175781 343.503906 480.402344 343.546875 C 480.703125 343.601562 481 343.597656 481.296875 343.535156 C 481.59375 343.472656 481.867188 343.351562 482.117188 343.179688 C 482.371094 343.007812 482.578125 342.792969 482.742188 342.539062 C 482.90625 342.285156 483.019531 342.007812 483.074219 341.707031 L 484.308594 335.003906 L 482.058594 334.589844 L 480.734375 336.460938 L 486.347656 340.425781 C 486.886719 340.804688 487.476562 340.929688 488.121094 340.800781 C 488.417969 340.742188 488.691406 340.628906 488.945312 340.457031 C 489.199219 340.289062 489.410156 340.078125 489.578125 339.824219 C 489.746094 339.574219 489.859375 339.296875 489.917969 339 C 489.976562 338.699219 489.976562 338.402344 489.917969 338.105469 C 489.914062 338.082031 489.910156 338.050781 489.902344 338.019531 C 489.820312 337.542969 489.753906 337.234375 489.707031 337.09375 C 489.691406 337.042969 489.671875 336.996094 489.652344 336.945312 L 479.441406 312.207031 C 479.328125 311.925781 479.160156 311.679688 478.945312 311.464844 C 478.734375 311.25 478.484375 311.082031 478.203125 310.964844 C 477.921875 310.851562 477.632812 310.792969 477.328125 310.792969 C 477.023438 310.789062 476.730469 310.847656 476.449219 310.964844 C 476.167969 311.082031 475.921875 311.246094 475.707031 311.460938 C 475.492188 311.675781 475.324219 311.921875 475.207031 312.203125 C 475.09375 312.484375 475.035156 312.777344 475.035156 313.082031 C 475.03125 313.382812 475.089844 313.675781 475.207031 313.957031 Z M 475.207031 313.957031 "/><path style=" stroke:none;fill-rule:nonzero;fill:#918f8f;fill-opacity:1;" d="M 383.222656 187.730469 C 383.191406 187.664062 383.15625 187.59375 383.121094 187.515625 L 373.644531 164.605469 L 409.964844 149.566406 L 419.453125 172.488281 C 419.476562 172.558594 419.5 172.636719 419.523438 172.707031 L 383.222656 187.730469 "/><path style="fill:none;stroke-width:40;stroke-linecap:round;stroke-linejoin:round;stroke:#000000;stroke-opacity:1;stroke-miterlimit:10;" d="M 1702.283452 2714.612609 C 1702.010705 2715.19204 1701.703865 2715.805555 1701.397025 2716.487239 L 1618.686582 2916.390889 L 1935.686458 3047.614939 L 2018.499182 2847.609036 C 2018.703742 2846.995521 2018.908302 2846.313838 2019.112862 2845.700323 Z M 1702.283452 2714.612609 " transform="matrix(0.114575,0,0,-0.114606,188.183252,498.841341)"/><path style=" stroke:none;fill-rule:nonzero;fill:#000000;fill-opacity:1;" d="M 400.71875 200.304688 L 451.796875 324.835938 "/><path style=" stroke:none;fill-rule:nonzero;fill:#000000;fill-opacity:1;" d="M 400.71875 200.304688 C 400.71875 200.304688 400.960938 200.773438 401.417969 201.65625 C 401.855469 202.539062 402.542969 203.824219 403.34375 205.484375 C 404.972656 208.785156 407.273438 213.53125 409.921875 219.261719 C 411.25 222.125 412.691406 225.230469 414.148438 228.53125 C 415.625 231.84375 417.207031 235.316406 418.742188 238.9375 C 420.300781 242.570312 421.960938 246.285156 423.542969 250.113281 C 425.136719 253.941406 426.761719 257.8125 428.378906 261.699219 C 429.960938 265.59375 431.53125 269.503906 433.078125 273.34375 C 434.644531 277.183594 436.066406 281 437.511719 284.664062 C 438.953125 288.332031 440.273438 291.921875 441.53125 295.300781 C 442.816406 298.683594 443.972656 301.902344 445.039062 304.882812 C 447.179688 310.820312 448.863281 315.816406 450.035156 319.3125 C 451.191406 322.816406 451.796875 324.835938 451.796875 324.835938 C 451.796875 324.835938 450.824219 322.96875 449.183594 319.667969 C 447.546875 316.355469 445.242188 311.621094 442.597656 305.878906 C 441.269531 303.015625 439.835938 299.910156 438.371094 296.597656 C 436.890625 293.308594 435.320312 289.824219 433.773438 286.203125 C 432.226562 282.570312 430.554688 278.855469 428.972656 275.027344 C 427.382812 271.199219 425.765625 267.324219 424.152344 263.441406 C 422.570312 259.53125 421 255.636719 419.453125 251.796875 C 417.894531 247.957031 416.460938 244.140625 415.019531 240.472656 C 413.574219 236.792969 412.257812 233.21875 410.996094 229.828125 C 409.714844 226.445312 408.558594 223.226562 407.492188 220.257812 C 405.347656 214.320312 403.664062 209.324219 402.496094 205.828125 C 401.910156 204.074219 401.488281 202.6875 401.191406 201.75 C 400.878906 200.796875 400.71875 200.304688 400.71875 200.304688 "/><path style=" stroke:none;fill-rule:nonzero;fill:#000000;fill-opacity:1;" d="M 414.320312 192.921875 L 465.398438 317.453125 "/><path style=" stroke:none;fill-rule:nonzero;fill:#000000;fill-opacity:1;" d="M 414.320312 192.921875 C 414.320312 192.921875 414.5625 193.394531 415.007812 194.277344 C 415.453125 195.160156 416.128906 196.441406 416.933594 198.105469 C 418.570312 201.40625 420.875 206.148438 423.507812 211.878906 C 424.839844 214.746094 426.28125 217.851562 427.75 221.164062 C 429.214844 224.464844 430.796875 227.9375 432.34375 231.558594 C 433.890625 235.191406 435.5625 238.902344 437.144531 242.730469 C 438.734375 246.558594 440.351562 250.433594 441.980469 254.316406 C 443.546875 258.226562 445.117188 262.121094 446.664062 265.960938 C 448.234375 269.789062 449.65625 273.617188 451.097656 277.285156 C 452.542969 280.964844 453.871094 284.539062 455.132812 287.921875 C 456.414062 291.300781 457.574219 294.535156 458.636719 297.5 C 460.78125 303.4375 462.464844 308.433594 463.621094 311.929688 C 464.777344 315.4375 465.398438 317.453125 465.398438 317.453125 C 465.398438 317.453125 464.414062 315.585938 462.773438 312.273438 C 461.148438 308.972656 458.84375 304.230469 456.199219 298.5 C 454.867188 295.632812 453.425781 292.527344 451.96875 289.226562 C 450.492188 285.925781 448.921875 282.441406 447.363281 278.820312 C 445.816406 275.1875 444.144531 271.472656 442.574219 267.648438 C 440.980469 263.820312 439.355469 259.945312 437.738281 256.058594 C 436.167969 252.152344 434.601562 248.253906 433.054688 244.417969 C 431.484375 240.578125 430.0625 236.761719 428.621094 233.09375 C 427.175781 229.414062 425.859375 225.839844 424.585938 222.457031 C 423.304688 219.078125 422.15625 215.84375 421.089844 212.875 C 418.949219 206.941406 417.253906 201.941406 416.097656 198.449219 C 415.5 196.695312 415.089844 195.308594 414.777344 194.367188 C 414.480469 193.417969 414.320312 192.921875 414.320312 192.921875 "/><path style=" stroke:none;fill-rule:nonzero;fill:#ffffff;fill-opacity:1;" d="M 499.046875 173.304688 C 482 174.710938 480.855469 175.871094 479.433594 192.921875 C 478.011719 175.871094 476.867188 174.710938 459.828125 173.304688 C 476.867188 171.882812 478.011719 170.734375 479.433594 153.683594 C 480.855469 170.734375 482 171.882812 499.046875 173.304688 "/><g clip-rule="nonzero" clip-path="url(#19b96cf2e3)"><path style="fill:none;stroke-width:38.945999;stroke-linecap:round;stroke-linejoin:round;stroke:#000000;stroke-opacity:1;stroke-miterlimit:10;" d="M 2713.18508 2840.485445 C 2564.401744 2828.215144 2554.412395 2818.092146 2542.002419 2669.314749 C 2529.592443 2818.092146 2519.603095 2828.215144 2370.887945 2840.485445 C 2519.603095 2852.892082 2529.592443 2862.912828 2542.002419 3011.690225 C 2554.412395 2862.912828 2564.401744 2852.892082 2713.18508 2840.485445 Z M 2713.18508 2840.485445 " transform="matrix(0.114575,0,0,-0.114606,188.183252,498.841341)"/></g><path style=" stroke:none;fill-rule:nonzero;fill:#ffffff;fill-opacity:1;" d="M 420.335938 317.464844 C 403.285156 318.875 402.140625 320.023438 400.71875 337.074219 C 399.3125 320.023438 398.164062 318.875 381.117188 317.464844 C 398.164062 316.042969 399.3125 314.898438 400.71875 297.84375 C 402.140625 314.898438 403.285156 316.042969 420.335938 317.464844 "/><path style="fill:none;stroke-width:38.945999;stroke-linecap:round;stroke-linejoin:round;stroke:#000000;stroke-opacity:1;stroke-miterlimit:10;" d="M 2026.204276 1582.609192 C 1877.386847 1570.304807 1867.397498 1560.284061 1854.987522 1411.506664 C 1842.71392 1560.284061 1832.690478 1570.304807 1683.907142 1582.609192 C 1832.690478 1595.015829 1842.71392 1605.002491 1854.987522 1753.813972 C 1867.397498 1605.002491 1877.386847 1595.015829 2026.204276 1582.609192 Z M 2026.204276 1582.609192 " transform="matrix(0.114575,0,0,-0.114606,188.183252,498.841341)"/><g style="fill:#000000;fill-opacity:1;"><g transform="translate(120.407098, 327.385872)"><path style="stroke:none" d="M 7.1875 0.453125 C 4.675781 0.453125 2.726562 0 1.34375 -0.90625 L 1.34375 -3.359375 C 2.6875 -2.421875 4.4375 -1.953125 6.59375 -1.953125 C 8.550781 -1.953125 10.070312 -2.457031 11.15625 -3.46875 C 12.25 -4.488281 12.796875 -6 12.796875 -8 C 12.796875 -10 12.25 -11.503906 11.15625 -12.515625 C 10.070312 -13.535156 8.550781 -14.046875 6.59375 -14.046875 C 4.488281 -14.046875 2.757812 -13.578125 1.40625 -12.640625 L 1.40625 -15.125 C 2.800781 -16.019531 4.726562 -16.46875 7.1875 -16.46875 C 9.882812 -16.46875 12.007812 -15.722656 13.5625 -14.234375 C 15.125 -12.753906 15.90625 -10.675781 15.90625 -8 C 15.90625 -5.320312 15.125 -3.242188 13.5625 -1.765625 C 12.007812 -0.285156 9.882812 0.453125 7.1875 0.453125 Z M 7.1875 0.453125 "/></g></g><g style="fill:#000000;fill-opacity:1;"><g transform="translate(137.653959, 327.385872)"><path style="stroke:none" d="M -14.921875 -20.453125 L -1.984375 -20.453125 L -1.984375 -18.390625 L -14.921875 -18.390625 Z M -14.921875 -20.453125 "/></g></g><g style="fill:#000000;fill-opacity:1;"><g transform="translate(137.653959, 327.385872)"><path style="stroke:none" d="M 1.953125 -16.03125 L 4.875 -16.03125 L 4.875 -13.875 C 5.65625 -14.75 6.570312 -15.398438 7.625 -15.828125 C 8.675781 -16.253906 9.738281 -16.46875 10.8125 -16.46875 C 12.769531 -16.46875 14.265625 -15.925781 15.296875 -14.84375 C 16.335938 -13.769531 16.859375 -12.382812 16.859375 -10.6875 L 16.859375 0 L 13.8125 0 L 13.8125 -10.546875 C 13.8125 -11.660156 13.5 -12.519531 12.875 -13.125 C 12.257812 -13.738281 11.300781 -14.046875 10 -14.046875 C 7.820312 -14.046875 6.15625 -13.140625 5 -11.328125 L 5 0 L 1.953125 0 Z M 1.953125 -16.03125 "/></g></g><g style="fill:#000000;fill-opacity:1;"><g transform="translate(156.457834, 327.385872)"><path style="stroke:none" d="M 8.953125 0.453125 C 6.640625 0.453125 4.789062 0.015625 3.40625 -0.859375 C 2.03125 -1.742188 1.34375 -3.023438 1.34375 -4.703125 C 1.34375 -5.578125 1.585938 -6.347656 2.078125 -7.015625 C 2.566406 -7.691406 3.222656 -8.160156 4.046875 -8.421875 C 3.265625 -8.753906 2.640625 -9.238281 2.171875 -9.875 C 1.703125 -10.519531 1.46875 -11.257812 1.46875 -12.09375 C 1.46875 -13.414062 1.90625 -14.472656 2.78125 -15.265625 C 3.664062 -16.066406 4.957031 -16.46875 6.65625 -16.46875 C 7.132812 -16.46875 7.617188 -16.429688 8.109375 -16.359375 C 8.609375 -16.296875 9.007812 -16.222656 9.3125 -16.140625 L 9.3125 -13.75 C 9.050781 -13.84375 8.71875 -13.914062 8.3125 -13.96875 C 7.90625 -14.019531 7.53125 -14.046875 7.1875 -14.046875 C 6.332031 -14.046875 5.675781 -13.859375 5.21875 -13.484375 C 4.769531 -13.117188 4.546875 -12.597656 4.546875 -11.921875 C 4.546875 -11.203125 4.785156 -10.648438 5.265625 -10.265625 C 5.742188 -9.890625 6.457031 -9.703125 7.40625 -9.703125 L 9.3125 -9.703125 L 9.3125 -7.1875 L 7.421875 -7.1875 C 6.460938 -7.1875 5.722656 -6.976562 5.203125 -6.5625 C 4.691406 -6.15625 4.4375 -5.535156 4.4375 -4.703125 C 4.4375 -3.828125 4.835938 -3.148438 5.640625 -2.671875 C 6.453125 -2.191406 7.554688 -1.953125 8.953125 -1.953125 C 12.242188 -1.953125 13.890625 -3.347656 13.890625 -6.140625 L 13.890625 -16.03125 L 16.953125 -16.03125 L 16.953125 -6.203125 C 16.953125 -5.078125 16.691406 -4.007812 16.171875 -3 C 15.648438 -2 14.796875 -1.171875 13.609375 -0.515625 C 12.421875 0.128906 10.867188 0.453125 8.953125 0.453125 Z M 8.953125 0.453125 "/></g></g><g style="fill:#000000;fill-opacity:1;"><g transform="translate(175.351534, 327.385872)"><path style="stroke:none" d="M 7.578125 -10.359375 C 7.578125 -11.640625 7.316406 -12.570312 6.796875 -13.15625 C 6.273438 -13.75 5.359375 -14.046875 4.046875 -14.046875 C 2.765625 -14.046875 1.566406 -13.765625 0.453125 -13.203125 L 0.453125 -15.609375 C 0.929688 -15.847656 1.550781 -16.050781 2.3125 -16.21875 C 3.082031 -16.382812 3.847656 -16.46875 4.609375 -16.46875 C 6.628906 -16.46875 8.140625 -15.921875 9.140625 -14.828125 C 10.140625 -13.742188 10.640625 -12.1875 10.640625 -10.15625 L 10.640625 0 L 7.578125 0 Z M 7.578125 -10.359375 "/></g></g><g style="fill:#000000;fill-opacity:1;"><g transform="translate(187.927366, 327.385872)"><path style="stroke:none" d="M 7.15625 0.453125 C 5.382812 0.453125 3.972656 0.0078125 2.921875 -0.875 C 1.867188 -1.769531 1.34375 -3.035156 1.34375 -4.671875 C 1.34375 -6.285156 1.925781 -7.570312 3.09375 -8.53125 C 4.269531 -9.488281 5.851562 -9.96875 7.84375 -9.96875 C 9.820312 -9.96875 11.597656 -9.597656 13.171875 -8.859375 L 13.171875 -10.09375 C 13.171875 -11.46875 12.796875 -12.46875 12.046875 -13.09375 C 11.304688 -13.726562 10.066406 -14.046875 8.328125 -14.046875 C 7.367188 -14.046875 6.429688 -13.957031 5.515625 -13.78125 C 4.597656 -13.601562 3.796875 -13.351562 3.109375 -13.03125 L 3.109375 -15.421875 C 3.734375 -15.722656 4.578125 -15.972656 5.640625 -16.171875 C 6.710938 -16.367188 7.757812 -16.46875 8.78125 -16.46875 C 11.269531 -16.46875 13.132812 -15.898438 14.375 -14.765625 C 15.613281 -13.628906 16.234375 -12.09375 16.234375 -10.15625 L 16.234375 0 L 13.171875 0 L 13.171875 -6.4375 C 11.722656 -7.175781 10.054688 -7.546875 8.171875 -7.546875 C 6.878906 -7.546875 5.925781 -7.304688 5.3125 -6.828125 C 4.707031 -6.347656 4.40625 -5.628906 4.40625 -4.671875 C 4.40625 -2.859375 5.570312 -1.953125 7.90625 -1.953125 C 8.625 -1.953125 9.253906 -2.050781 9.796875 -2.25 L 9.796875 0.125 C 9.078125 0.34375 8.195312 0.453125 7.15625 0.453125 Z M 7.15625 0.453125 "/></g></g><g style="fill:#000000;fill-opacity:1;"><g transform="translate(206.102446, 327.385872)"><path style="stroke:none" d="M -7.578125 -18.390625 C -8.429688 -18.390625 -9.050781 -18.601562 -9.4375 -19.03125 C -9.832031 -19.457031 -10.03125 -20.101562 -10.03125 -20.96875 L -10.03125 -22.53125 L -7.28125 -22.53125 L -7.28125 -21.328125 C -7.28125 -20.984375 -7.210938 -20.75 -7.078125 -20.625 C -6.953125 -20.507812 -6.707031 -20.453125 -6.34375 -20.453125 L 0.71875 -20.453125 L 0.71875 -18.390625 Z M -7.578125 -18.390625 "/></g></g><g style="fill:#000000;fill-opacity:1;"><g transform="translate(206.102446, 327.385872)"><path style="stroke:none" d="M 8.953125 0.453125 C 6.640625 0.453125 4.789062 0.015625 3.40625 -0.859375 C 2.03125 -1.742188 1.34375 -3.023438 1.34375 -4.703125 C 1.34375 -5.578125 1.585938 -6.347656 2.078125 -7.015625 C 2.566406 -7.691406 3.222656 -8.160156 4.046875 -8.421875 C 3.265625 -8.753906 2.640625 -9.238281 2.171875 -9.875 C 1.703125 -10.519531 1.46875 -11.257812 1.46875 -12.09375 C 1.46875 -13.414062 1.90625 -14.472656 2.78125 -15.265625 C 3.664062 -16.066406 4.957031 -16.46875 6.65625 -16.46875 C 7.132812 -16.46875 7.617188 -16.429688 8.109375 -16.359375 C 8.609375 -16.296875 9.007812 -16.222656 9.3125 -16.140625 L 9.3125 -13.75 C 9.050781 -13.84375 8.71875 -13.914062 8.3125 -13.96875 C 7.90625 -14.019531 7.53125 -14.046875 7.1875 -14.046875 C 6.332031 -14.046875 5.675781 -13.859375 5.21875 -13.484375 C 4.769531 -13.117188 4.546875 -12.597656 4.546875 -11.921875 C 4.546875 -11.203125 4.785156 -10.648438 5.265625 -10.265625 C 5.742188 -9.890625 6.457031 -9.703125 7.40625 -9.703125 L 9.3125 -9.703125 L 9.3125 -7.1875 L 7.421875 -7.1875 C 6.460938 -7.1875 5.722656 -6.976562 5.203125 -6.5625 C 4.691406 -6.15625 4.4375 -5.535156 4.4375 -4.703125 C 4.4375 -3.828125 4.835938 -3.148438 5.640625 -2.671875 C 6.453125 -2.191406 7.554688 -1.953125 8.953125 -1.953125 C 12.242188 -1.953125 13.890625 -3.347656 13.890625 -6.140625 L 13.890625 -16.03125 L 16.953125 -16.03125 L 16.953125 -6.203125 C 16.953125 -5.078125 16.691406 -4.007812 16.171875 -3 C 15.648438 -2 14.796875 -1.171875 13.609375 -0.515625 C 12.421875 0.128906 10.867188 0.453125 8.953125 0.453125 Z M 8.953125 0.453125 "/></g></g><g style="fill:#000000;fill-opacity:1;"><g transform="translate(224.996146, 327.385872)"><path style="stroke:none" d="M 7.875 0.453125 C 6.632812 0.453125 5.4375 0.304688 4.28125 0.015625 C 3.125 -0.273438 2.144531 -0.679688 1.34375 -1.203125 L 1.34375 -9.171875 L 8 -9.171875 L 8 -6.703125 L 4.40625 -6.703125 L 4.40625 -2.71875 C 5.257812 -2.207031 6.414062 -1.953125 7.875 -1.953125 C 9.789062 -1.953125 11.253906 -2.476562 12.265625 -3.53125 C 13.273438 -4.59375 13.78125 -6.128906 13.78125 -8.140625 C 13.78125 -10.160156 13.265625 -11.648438 12.234375 -12.609375 C 11.203125 -13.566406 9.519531 -14.046875 7.1875 -14.046875 C 6.125 -14.046875 5.082031 -13.941406 4.0625 -13.734375 C 3.050781 -13.523438 2.195312 -13.191406 1.5 -12.734375 L 1.5 -15.15625 C 2.28125 -15.59375 3.195312 -15.921875 4.25 -16.140625 C 5.3125 -16.359375 6.453125 -16.46875 7.671875 -16.46875 C 10.660156 -16.46875 12.941406 -15.738281 14.515625 -14.28125 C 16.097656 -12.820312 16.890625 -10.773438 16.890625 -8.140625 C 16.890625 -5.484375 16.101562 -3.382812 14.53125 -1.84375 C 12.96875 -0.3125 10.75 0.453125 7.875 0.453125 Z M 7.875 0.453125 "/></g></g><g style="fill:#000000;fill-opacity:1;"><g transform="translate(243.231105, 327.385872)"><path style="stroke:none" d="M 7.578125 -10.359375 C 7.578125 -11.640625 7.316406 -12.570312 6.796875 -13.15625 C 6.273438 -13.75 5.359375 -14.046875 4.046875 -14.046875 C 2.765625 -14.046875 1.566406 -13.765625 0.453125 -13.203125 L 0.453125 -15.609375 C 0.929688 -15.847656 1.550781 -16.050781 2.3125 -16.21875 C 3.082031 -16.382812 3.847656 -16.46875 4.609375 -16.46875 C 6.628906 -16.46875 8.140625 -15.921875 9.140625 -14.828125 C 10.140625 -13.742188 10.640625 -12.1875 10.640625 -10.15625 L 10.640625 0 L 7.578125 0 Z M 7.578125 -10.359375 "/></g></g><g style="fill:#000000;fill-opacity:1;"><g transform="translate(255.806936, 327.385872)"><path style="stroke:none" d="M 8.625 0.453125 C 7.207031 0.453125 5.957031 0.203125 4.875 -0.296875 C 3.800781 -0.796875 2.96875 -1.5 2.375 -2.40625 C 1.789062 -3.320312 1.5 -4.367188 1.5 -5.546875 L 1.5 -6.5625 C 1.5 -7.238281 1.644531 -7.867188 1.9375 -8.453125 C 2.238281 -9.046875 2.648438 -9.691406 3.171875 -10.390625 C 3.554688 -10.910156 3.832031 -11.328125 4 -11.640625 C 4.164062 -11.960938 4.25 -12.265625 4.25 -12.546875 C 4.25 -12.929688 4.15625 -13.203125 3.96875 -13.359375 C 3.78125 -13.515625 3.46875 -13.59375 3.03125 -13.59375 L 1.34375 -13.59375 L 1.34375 -16.03125 L 4.5 -16.03125 C 5.375 -16.03125 6.066406 -15.773438 6.578125 -15.265625 C 7.085938 -14.753906 7.34375 -14.078125 7.34375 -13.234375 C 7.34375 -12.660156 7.222656 -12.128906 6.984375 -11.640625 C 6.742188 -11.148438 6.382812 -10.554688 5.90625 -9.859375 C 5.425781 -9.140625 5.078125 -8.554688 4.859375 -8.109375 C 4.648438 -7.671875 4.546875 -7.191406 4.546875 -6.671875 L 4.546875 -5.578125 C 4.546875 -4.429688 4.90625 -3.539062 5.625 -2.90625 C 6.34375 -2.269531 7.34375 -1.953125 8.625 -1.953125 C 9.976562 -1.953125 11.035156 -2.316406 11.796875 -3.046875 C 12.554688 -3.785156 12.9375 -4.875 12.9375 -6.3125 C 12.9375 -7.757812 12.632812 -8.84375 12.03125 -9.5625 C 11.4375 -10.28125 10.5625 -10.640625 9.40625 -10.640625 L 9.40625 -12.28125 L 12.609375 -16.46875 L 15.90625 -16.46875 L 12.515625 -12.015625 C 13.734375 -11.554688 14.617188 -10.851562 15.171875 -9.90625 C 15.722656 -8.957031 16 -7.757812 16 -6.3125 C 16 -4.9375 15.691406 -3.738281 15.078125 -2.71875 C 14.472656 -1.707031 13.609375 -0.925781 12.484375 -0.375 C 11.367188 0.175781 10.082031 0.453125 8.625 0.453125 Z M 8.625 0.453125 "/></g></g><g style="fill:#000000;fill-opacity:1;"><g transform="translate(273.293341, 327.385872)"><path style="stroke:none" d="M -14.921875 -20.453125 L -4.765625 -20.453125 L -4.765625 -23.65625 L -1.984375 -23.65625 L -1.984375 -18.390625 L -14.921875 -18.390625 Z M -14.921875 -20.453125 "/></g></g><g style="fill:#000000;fill-opacity:1;"><g transform="translate(273.293341, 327.385872)"><path style="stroke:none" d="M 7.1875 0.453125 C 4.675781 0.453125 2.726562 0 1.34375 -0.90625 L 1.34375 -3.359375 C 2.6875 -2.421875 4.4375 -1.953125 6.59375 -1.953125 C 8.550781 -1.953125 10.070312 -2.457031 11.15625 -3.46875 C 12.25 -4.488281 12.796875 -6 12.796875 -8 C 12.796875 -10 12.25 -11.503906 11.15625 -12.515625 C 10.070312 -13.535156 8.550781 -14.046875 6.59375 -14.046875 C 4.488281 -14.046875 2.757812 -13.578125 1.40625 -12.640625 L 1.40625 -15.125 C 2.800781 -16.019531 4.726562 -16.46875 7.1875 -16.46875 C 9.882812 -16.46875 12.007812 -15.722656 13.5625 -14.234375 C 15.125 -12.753906 15.90625 -10.675781 15.90625 -8 C 15.90625 -5.320312 15.125 -3.242188 13.5625 -1.765625 C 12.007812 -0.285156 9.882812 0.453125 7.1875 0.453125 Z M 7.1875 0.453125 "/></g></g><g style="fill:#000000;fill-opacity:1;"><g transform="translate(290.540202, 327.385872)"><path style="stroke:none" d="M 1.953125 -9.921875 C 1.953125 -11.992188 2.628906 -13.601562 3.984375 -14.75 C 5.335938 -15.894531 7.203125 -16.46875 9.578125 -16.46875 C 11.117188 -16.46875 12.4375 -16.226562 13.53125 -15.75 L 14.828125 -17.21875 L 18.21875 -17.21875 L 15.640625 -14.28125 C 16.671875 -13.144531 17.1875 -11.691406 17.1875 -9.921875 L 17.1875 0 L 14.140625 0 L 14.140625 -10 C 14.140625 -11.363281 13.738281 -12.378906 12.9375 -13.046875 C 12.132812 -13.710938 11.015625 -14.046875 9.578125 -14.046875 C 8.128906 -14.046875 7.003906 -13.710938 6.203125 -13.046875 C 5.398438 -12.378906 5 -11.363281 5 -10 L 5 -6.953125 C 5.257812 -7.429688 5.664062 -7.8125 6.21875 -8.09375 C 6.78125 -8.382812 7.441406 -8.53125 8.203125 -8.53125 L 10.609375 -8.53125 L 10.609375 -6.015625 L 7.96875 -6.015625 C 7.125 -6.015625 6.414062 -5.71875 5.84375 -5.125 C 5.28125 -4.539062 5 -3.867188 5 -3.109375 L 5 0 L 1.953125 0 Z M 1.953125 -9.921875 "/></g></g><g style="fill:#000000;fill-opacity:1;"><g transform="translate(309.793206, 327.385872)"><path style="stroke:none" d="M -14.890625 -20.390625 L -7.03125 -20.390625 C -7.195312 -20.753906 -7.257812 -21.1875 -7.21875 -21.6875 C -7.132812 -22.40625 -6.820312 -22.984375 -6.28125 -23.421875 C -5.75 -23.859375 -5.09375 -24.078125 -4.3125 -24.078125 C -3.375 -24.078125 -2.648438 -23.804688 -2.140625 -23.265625 C -1.628906 -22.734375 -1.375 -22.078125 -1.375 -21.296875 C -1.375 -20.453125 -1.664062 -19.753906 -2.25 -19.203125 C -2.84375 -18.660156 -3.617188 -18.390625 -4.578125 -18.390625 L -14.890625 -18.390625 Z M -4.3125 -19.921875 C -3.9375 -19.921875 -3.613281 -20.054688 -3.34375 -20.328125 C -3.070312 -20.597656 -2.9375 -20.921875 -2.9375 -21.296875 C -2.9375 -21.671875 -3.070312 -21.992188 -3.34375 -22.265625 C -3.613281 -22.535156 -3.9375 -22.671875 -4.3125 -22.671875 C -4.6875 -22.671875 -5.003906 -22.535156 -5.265625 -22.265625 C -5.523438 -21.992188 -5.65625 -21.671875 -5.65625 -21.296875 C -5.65625 -20.898438 -5.523438 -20.570312 -5.265625 -20.3125 C -5.003906 -20.050781 -4.6875 -19.921875 -4.3125 -19.921875 Z M -4.3125 -19.921875 "/></g></g><g style="fill:#000000;fill-opacity:1;"><g transform="translate(309.793206, 327.385872)"><path style="stroke:none" d="M 2.84375 -9.96875 L 1.34375 -12.40625 C 2.40625 -13.738281 3.613281 -14.75 4.96875 -15.4375 C 6.332031 -16.125 7.941406 -16.46875 9.796875 -16.46875 C 12.191406 -16.46875 14.023438 -15.921875 15.296875 -14.828125 C 16.578125 -13.742188 17.21875 -12.226562 17.21875 -10.28125 L 17.21875 0 L 14.171875 0 L 14.171875 -10.03125 C 14.171875 -11.40625 13.804688 -12.414062 13.078125 -13.0625 C 12.347656 -13.71875 11.253906 -14.046875 9.796875 -14.046875 C 8.691406 -14.046875 7.71875 -13.878906 6.875 -13.546875 C 6.039062 -13.222656 5.285156 -12.703125 4.609375 -11.984375 L 5.90625 -9.96875 L 5.90625 0 L 2.84375 0 Z M 2.84375 -9.96875 "/></g></g><g style="fill:#000000;fill-opacity:1;"><g transform="translate(328.956385, 327.385872)"><path style="stroke:none" d="M 9.640625 0.453125 C 8.085938 0.453125 6.726562 0.171875 5.5625 -0.390625 C 4.40625 -0.953125 3.515625 -1.734375 2.890625 -2.734375 C 2.265625 -3.742188 1.953125 -4.898438 1.953125 -6.203125 L 1.953125 -16.03125 L 5 -16.03125 L 5 -6.265625 C 5 -4.921875 5.394531 -3.863281 6.1875 -3.09375 C 6.976562 -2.332031 8.128906 -1.953125 9.640625 -1.953125 C 11.140625 -1.953125 12.28125 -2.332031 13.0625 -3.09375 C 13.851562 -3.863281 14.25 -4.921875 14.25 -6.265625 L 14.25 -8.09375 L 10.453125 -8.09375 L 10.453125 -10.609375 L 14.25 -10.609375 L 14.25 -16.03125 L 17.3125 -16.03125 L 17.3125 -10.609375 L 19.046875 -10.609375 L 19.046875 -8.09375 L 17.3125 -8.09375 L 17.3125 -6.203125 C 17.3125 -4.898438 16.992188 -3.742188 16.359375 -2.734375 C 15.734375 -1.734375 14.84375 -0.953125 13.6875 -0.390625 C 12.53125 0.171875 11.179688 0.453125 9.640625 0.453125 Z M 9.640625 0.453125 "/></g></g><g style="fill:#000000;fill-opacity:1;"><g transform="translate(348.59864, 327.385872)"><path style="stroke:none" d="M 7.578125 -10.359375 C 7.578125 -11.640625 7.316406 -12.570312 6.796875 -13.15625 C 6.273438 -13.75 5.359375 -14.046875 4.046875 -14.046875 C 2.765625 -14.046875 1.566406 -13.765625 0.453125 -13.203125 L 0.453125 -15.609375 C 0.929688 -15.847656 1.550781 -16.050781 2.3125 -16.21875 C 3.082031 -16.382812 3.847656 -16.46875 4.609375 -16.46875 C 6.628906 -16.46875 8.140625 -15.921875 9.140625 -14.828125 C 10.140625 -13.742188 10.640625 -12.1875 10.640625 -10.15625 L 10.640625 0 L 7.578125 0 Z M 7.578125 -10.359375 "/></g></g><g style="fill:#000000;fill-opacity:1;"><g transform="translate(224.274036, 362.971975)"><path style="stroke:none" d="M 7.15625 0.453125 C 5.382812 0.453125 3.972656 0.0078125 2.921875 -0.875 C 1.867188 -1.769531 1.34375 -3.035156 1.34375 -4.671875 C 1.34375 -6.285156 1.925781 -7.570312 3.09375 -8.53125 C 4.269531 -9.488281 5.851562 -9.96875 7.84375 -9.96875 C 9.820312 -9.96875 11.597656 -9.597656 13.171875 -8.859375 L 13.171875 -10.09375 C 13.171875 -11.46875 12.796875 -12.46875 12.046875 -13.09375 C 11.304688 -13.726562 10.066406 -14.046875 8.328125 -14.046875 C 7.367188 -14.046875 6.429688 -13.957031 5.515625 -13.78125 C 4.597656 -13.601562 3.796875 -13.351562 3.109375 -13.03125 L 3.109375 -15.421875 C 3.734375 -15.722656 4.578125 -15.972656 5.640625 -16.171875 C 6.710938 -16.367188 7.757812 -16.46875 8.78125 -16.46875 C 10.570312 -16.46875 12.066406 -16.140625 13.265625 -15.484375 L 14.796875 -17.21875 L 18.1875 -17.21875 L 15.15625 -13.84375 C 15.875 -12.820312 16.234375 -11.59375 16.234375 -10.15625 L 16.234375 0 L 13.171875 0 L 13.171875 -6.4375 C 11.722656 -7.175781 10.054688 -7.546875 8.171875 -7.546875 C 6.878906 -7.546875 5.925781 -7.304688 5.3125 -6.828125 C 4.707031 -6.347656 4.40625 -5.628906 4.40625 -4.671875 C 4.40625 -2.859375 5.570312 -1.953125 7.90625 -1.953125 C 8.625 -1.953125 9.253906 -2.050781 9.796875 -2.25 L 9.796875 0.125 C 9.078125 0.34375 8.195312 0.453125 7.15625 0.453125 Z M 7.15625 0.453125 "/></g></g><g style="fill:#000000;fill-opacity:1;"><g transform="translate(242.898246, 362.971975)"><path style="stroke:none" d="M -4.734375 4.828125 C -4.734375 4.460938 -4.796875 4.210938 -4.921875 4.078125 C -5.054688 3.953125 -5.3125 3.890625 -5.6875 3.890625 L -6.671875 3.890625 L -6.671875 1.703125 L -4.21875 1.703125 C -3.320312 1.703125 -2.71875 1.878906 -2.40625 2.234375 C -2.101562 2.597656 -1.953125 3.238281 -1.953125 4.15625 L -1.953125 7.875 L -4.734375 7.875 Z M -4.734375 4.828125 "/></g></g><g style="fill:#000000;fill-opacity:1;"><g transform="translate(242.898246, 362.971975)"><path style="stroke:none" d="M 1.046875 -16.03125 L 4.109375 -16.03125 L 7.015625 -4.28125 L 10.484375 -16.03125 L 12.8125 -16.03125 L 16.265625 -4.28125 L 19.203125 -16.03125 L 22.25 -16.03125 L 17.796875 0 L 15.21875 0 L 11.65625 -12.046875 L 8.0625 0 L 5.484375 0 Z M 1.046875 -16.03125 "/></g></g><g style="fill:#000000;fill-opacity:1;"><g transform="translate(266.193484, 362.971975)"><path style="stroke:none" d="M 7.453125 0.453125 C 6.359375 0.453125 5.238281 0.328125 4.09375 0.078125 C 2.957031 -0.171875 2.070312 -0.535156 1.4375 -1.015625 L 1.4375 -3.46875 C 2.289062 -2.957031 3.234375 -2.566406 4.265625 -2.296875 C 5.296875 -2.023438 6.28125 -1.890625 7.21875 -1.890625 C 8.539062 -1.890625 9.488281 -2.039062 10.0625 -2.34375 C 10.644531 -2.65625 10.9375 -3.191406 10.9375 -3.953125 C 10.9375 -4.472656 10.796875 -4.890625 10.515625 -5.203125 C 10.234375 -5.523438 9.804688 -5.804688 9.234375 -6.046875 C 8.671875 -6.285156 7.78125 -6.585938 6.5625 -6.953125 C 4.800781 -7.492188 3.488281 -8.125 2.625 -8.84375 C 1.769531 -9.570312 1.34375 -10.585938 1.34375 -11.890625 C 1.34375 -13.367188 1.910156 -14.5 3.046875 -15.28125 C 4.191406 -16.070312 5.753906 -16.46875 7.734375 -16.46875 C 8.742188 -16.46875 9.722656 -16.351562 10.671875 -16.125 C 11.617188 -15.894531 12.40625 -15.59375 13.03125 -15.21875 L 13.03125 -12.703125 C 12.351562 -13.117188 11.570312 -13.445312 10.6875 -13.6875 C 9.8125 -13.925781 8.914062 -14.046875 8 -14.046875 C 5.601562 -14.046875 4.40625 -13.328125 4.40625 -11.890625 C 4.40625 -11.347656 4.566406 -10.914062 4.890625 -10.59375 C 5.222656 -10.28125 5.660156 -10.019531 6.203125 -9.8125 C 6.753906 -9.601562 7.679688 -9.304688 8.984375 -8.921875 C 10.265625 -8.546875 11.265625 -8.132812 11.984375 -7.6875 C 12.703125 -7.25 13.207031 -6.726562 13.5 -6.125 C 13.800781 -5.53125 13.953125 -4.796875 13.953125 -3.921875 C 13.953125 -2.609375 13.410156 -1.550781 12.328125 -0.75 C 11.253906 0.0507812 9.628906 0.453125 7.453125 0.453125 Z M 7.453125 0.453125 "/></g></g><g style="fill:#000000;fill-opacity:1;"><g transform="translate(281.49408, 362.971975)"><path style="stroke:none" d="M 7.453125 0.453125 C 6.359375 0.453125 5.238281 0.328125 4.09375 0.078125 C 2.957031 -0.171875 2.070312 -0.535156 1.4375 -1.015625 L 1.4375 -3.46875 C 2.289062 -2.957031 3.234375 -2.566406 4.265625 -2.296875 C 5.296875 -2.023438 6.28125 -1.890625 7.21875 -1.890625 C 8.539062 -1.890625 9.488281 -2.039062 10.0625 -2.34375 C 10.644531 -2.65625 10.9375 -3.191406 10.9375 -3.953125 C 10.9375 -4.472656 10.796875 -4.890625 10.515625 -5.203125 C 10.234375 -5.523438 9.804688 -5.804688 9.234375 -6.046875 C 8.671875 -6.285156 7.78125 -6.585938 6.5625 -6.953125 C 4.800781 -7.492188 3.488281 -8.125 2.625 -8.84375 C 1.769531 -9.570312 1.34375 -10.585938 1.34375 -11.890625 C 1.34375 -13.367188 1.910156 -14.5 3.046875 -15.28125 C 4.191406 -16.070312 5.753906 -16.46875 7.734375 -16.46875 C 8.742188 -16.46875 9.722656 -16.351562 10.671875 -16.125 C 11.617188 -15.894531 12.40625 -15.59375 13.03125 -15.21875 L 13.03125 -12.703125 C 12.351562 -13.117188 11.570312 -13.445312 10.6875 -13.6875 C 9.8125 -13.925781 8.914062 -14.046875 8 -14.046875 C 5.601562 -14.046875 4.40625 -13.328125 4.40625 -11.890625 C 4.40625 -11.347656 4.566406 -10.914062 4.890625 -10.59375 C 5.222656 -10.28125 5.660156 -10.019531 6.203125 -9.8125 C 6.753906 -9.601562 7.679688 -9.304688 8.984375 -8.921875 C 10.265625 -8.546875 11.265625 -8.132812 11.984375 -7.6875 C 12.703125 -7.25 13.207031 -6.726562 13.5 -6.125 C 13.800781 -5.53125 13.953125 -4.796875 13.953125 -3.921875 C 13.953125 -2.609375 13.410156 -1.550781 12.328125 -0.75 C 11.253906 0.0507812 9.628906 0.453125 7.453125 0.453125 Z M 7.453125 0.453125 "/></g></g><g style="fill:#000000;fill-opacity:1;"><g transform="translate(296.794677, 362.971975)"><path style="stroke:none" d="M 19.46875 0.453125 C 17.613281 0.453125 16.164062 -0.0859375 15.125 -1.171875 C 14.082031 -2.265625 13.5625 -3.691406 13.5625 -5.453125 L 13.5625 -10.03125 C 13.5625 -11.40625 13.226562 -12.414062 12.5625 -13.0625 C 11.894531 -13.71875 10.875 -14.046875 9.5 -14.046875 C 8.457031 -14.046875 7.550781 -13.882812 6.78125 -13.5625 C 6.007812 -13.25 5.285156 -12.722656 4.609375 -11.984375 L 5.90625 -9.96875 L 5.90625 -4.875 C 5.90625 -3.957031 5.992188 -3.335938 6.171875 -3.015625 C 6.347656 -2.703125 6.757812 -2.546875 7.40625 -2.546875 L 9.078125 -2.546875 L 9.078125 0 L 5.90625 0 C 4.90625 0 4.144531 -0.273438 3.625 -0.828125 C 3.101562 -1.390625 2.84375 -2.160156 2.84375 -3.140625 L 2.84375 -9.96875 L 1.34375 -12.40625 C 2.40625 -13.738281 3.582031 -14.75 4.875 -15.4375 C 6.175781 -16.125 7.71875 -16.46875 9.5 -16.46875 C 11.8125 -16.46875 13.570312 -15.921875 14.78125 -14.828125 C 15.988281 -13.742188 16.59375 -12.226562 16.59375 -10.28125 L 16.59375 -5.578125 C 16.59375 -3.160156 17.820312 -1.953125 20.28125 -1.953125 C 21.238281 -1.953125 22.101562 -2.179688 22.875 -2.640625 C 23.65625 -3.097656 24.304688 -3.785156 24.828125 -4.703125 L 24.828125 -16.03125 L 27.890625 -16.03125 L 27.890625 0 L 24.953125 0 L 24.953125 -2.09375 C 23.609375 -0.394531 21.78125 0.453125 19.46875 0.453125 Z M 19.46875 0.453125 "/></g></g><g style="fill:#000000;fill-opacity:1;"><g transform="translate(326.617369, 362.971975)"><path style="stroke:none" d="M 9.640625 0.453125 C 8.085938 0.453125 6.726562 0.171875 5.5625 -0.390625 C 4.40625 -0.953125 3.515625 -1.734375 2.890625 -2.734375 C 2.265625 -3.742188 1.953125 -4.898438 1.953125 -6.203125 L 1.953125 -16.03125 L 5 -16.03125 L 5 -6.265625 C 5 -4.921875 5.394531 -3.863281 6.1875 -3.09375 C 6.976562 -2.332031 8.128906 -1.953125 9.640625 -1.953125 C 11.140625 -1.953125 12.28125 -2.332031 13.0625 -3.09375 C 13.851562 -3.863281 14.25 -4.921875 14.25 -6.265625 L 14.25 -16.03125 L 17.3125 -16.03125 L 17.3125 -6.203125 C 17.3125 -4.898438 16.992188 -3.742188 16.359375 -2.734375 C 15.734375 -1.734375 14.84375 -0.953125 13.6875 -0.390625 C 12.53125 0.171875 11.179688 0.453125 9.640625 0.453125 Z M 9.640625 0.453125 "/></g></g><g style="fill:#000000;fill-opacity:1;"><g transform="translate(345.870374, 362.971975)"><path style="stroke:none" d="M -4.734375 4.828125 C -4.734375 4.460938 -4.796875 4.210938 -4.921875 4.078125 C -5.054688 3.953125 -5.3125 3.890625 -5.6875 3.890625 L -6.671875 3.890625 L -6.671875 1.703125 L -4.21875 1.703125 C -3.320312 1.703125 -2.71875 1.878906 -2.40625 2.234375 C -2.101562 2.597656 -1.953125 3.238281 -1.953125 4.15625 L -1.953125 7.875 L -4.734375 7.875 Z M -4.734375 4.828125 "/></g></g><g style="fill:#000000;fill-opacity:1;"><g transform="translate(345.870374, 362.971975)"><path style="stroke:none" d="M 7.453125 0.453125 C 6.359375 0.453125 5.238281 0.328125 4.09375 0.078125 C 2.957031 -0.171875 2.070312 -0.535156 1.4375 -1.015625 L 1.4375 -3.46875 C 2.289062 -2.957031 3.234375 -2.566406 4.265625 -2.296875 C 5.296875 -2.023438 6.28125 -1.890625 7.21875 -1.890625 C 8.539062 -1.890625 9.488281 -2.039062 10.0625 -2.34375 C 10.644531 -2.65625 10.9375 -3.191406 10.9375 -3.953125 C 10.9375 -4.472656 10.796875 -4.890625 10.515625 -5.203125 C 10.234375 -5.523438 9.804688 -5.804688 9.234375 -6.046875 C 8.671875 -6.285156 7.78125 -6.585938 6.5625 -6.953125 C 4.800781 -7.492188 3.488281 -8.125 2.625 -8.84375 C 1.769531 -9.570312 1.34375 -10.585938 1.34375 -11.890625 C 1.34375 -13.367188 1.910156 -14.5 3.046875 -15.28125 C 4.191406 -16.070312 5.753906 -16.46875 7.734375 -16.46875 C 8.742188 -16.46875 9.722656 -16.351562 10.671875 -16.125 C 11.617188 -15.894531 12.40625 -15.59375 13.03125 -15.21875 L 13.03125 -12.703125 C 12.351562 -13.117188 11.570312 -13.445312 10.6875 -13.6875 C 9.8125 -13.925781 8.914062 -14.046875 8 -14.046875 C 5.601562 -14.046875 4.40625 -13.328125 4.40625 -11.890625 C 4.40625 -11.347656 4.566406 -10.914062 4.890625 -10.59375 C 5.222656 -10.28125 5.660156 -10.019531 6.203125 -9.8125 C 6.753906 -9.601562 7.679688 -9.304688 8.984375 -8.921875 C 10.265625 -8.546875 11.265625 -8.132812 11.984375 -7.6875 C 12.703125 -7.25 13.207031 -6.726562 13.5 -6.125 C 13.800781 -5.53125 13.953125 -4.796875 13.953125 -3.921875 C 13.953125 -2.609375 13.410156 -1.550781 12.328125 -0.75 C 11.253906 0.0507812 9.628906 0.453125 7.453125 0.453125 Z M 7.453125 0.453125 "/></g></g><g style="fill:#000000;fill-opacity:1;"><g transform="translate(361.17097, 362.971975)"><path style="stroke:none" d="M -14.921875 -20.453125 L -4.765625 -20.453125 L -4.765625 -23.65625 L -1.984375 -23.65625 L -1.984375 -18.390625 L -14.921875 -18.390625 Z M -14.921875 -20.453125 "/></g></g><g style="fill:#000000;fill-opacity:1;"><g transform="translate(53.206241, 269.558479)"><path style="stroke:none" d="M 7.40625 -48.5 C 7.40625 -52.519531 8.46875 -55.59375 10.59375 -57.71875 C 12.71875 -59.851562 15.753906 -60.921875 19.703125 -60.921875 L 28.6875 -60.921875 L 28.6875 -51.125 L 24.59375 -51.125 C 22.539062 -51.125 21.078125 -50.6875 20.203125 -49.8125 C 19.335938 -48.9375 18.90625 -47.4375 18.90625 -45.3125 L 18.90625 -16.96875 L 34.15625 -41.78125 L 39.171875 -41.78125 L 54.421875 -16.96875 L 54.421875 -81.296875 L 65.921875 -81.296875 L 65.921875 0 L 55.453125 0 L 36.65625 -30.625 L 17.875 0 L 7.40625 0 Z M 7.40625 -48.5 "/></g></g><g style="fill:#000000;fill-opacity:1;"><g transform="translate(126.422492, 269.558479)"><path style="stroke:none" d="M -69.109375 -77.53125 L -45.890625 -77.53125 C -46.492188 -78.90625 -46.71875 -80.539062 -46.5625 -82.4375 C -46.257812 -85.164062 -45.082031 -87.363281 -43.03125 -89.03125 C -40.988281 -90.707031 -38.488281 -91.546875 -35.53125 -91.546875 C -31.957031 -91.546875 -29.203125 -90.519531 -27.265625 -88.46875 C -25.328125 -86.414062 -24.359375 -83.910156 -24.359375 -80.953125 C -24.359375 -77.765625 -25.476562 -75.125 -27.71875 -73.03125 C -29.957031 -70.945312 -32.898438 -69.90625 -36.546875 -69.90625 L -69.109375 -69.90625 Z M -35.53125 -75.71875 C -34.082031 -75.71875 -32.84375 -76.226562 -31.8125 -77.25 C -30.789062 -78.28125 -30.28125 -79.515625 -30.28125 -80.953125 C -30.28125 -82.398438 -30.789062 -83.632812 -31.8125 -84.65625 C -32.84375 -85.675781 -34.082031 -86.1875 -35.53125 -86.1875 C -36.96875 -86.1875 -38.175781 -85.675781 -39.15625 -84.65625 C -40.144531 -83.632812 -40.640625 -82.398438 -40.640625 -80.953125 C -40.640625 -79.429688 -40.144531 -78.175781 -39.15625 -77.1875 C -38.175781 -76.207031 -36.96875 -75.71875 -35.53125 -75.71875 Z M -35.53125 -75.71875 "/></g></g><g style="fill:#000000;fill-opacity:1;"><g transform="translate(120.725612, 269.558479)"><path style="stroke:none" d="M 10.8125 -37.921875 L 5.125 -47.140625 C 9.144531 -52.222656 13.734375 -56.070312 18.890625 -58.6875 C 24.054688 -61.3125 30.171875 -62.625 37.234375 -62.625 C 46.335938 -62.625 53.316406 -60.554688 58.171875 -56.421875 C 63.035156 -52.285156 65.46875 -46.492188 65.46875 -39.046875 L 65.46875 0 L 53.859375 0 L 53.859375 -38.140625 C 53.859375 -43.378906 52.472656 -47.234375 49.703125 -49.703125 C 46.929688 -52.171875 42.773438 -53.40625 37.234375 -53.40625 C 33.054688 -53.40625 29.375 -52.773438 26.1875 -51.515625 C 23 -50.265625 20.113281 -48.273438 17.53125 -45.546875 L 22.4375 -37.921875 L 22.4375 0 L 10.8125 0 Z M 10.8125 -37.921875 "/></g></g><g style="fill:#000000;fill-opacity:1;"><g transform="translate(187.789541, 269.558479)"><path style="stroke:none" d="M 5.125 -53.28125 L 16.734375 -53.28125 L 31.203125 -9.109375 C 38.335938 -9.109375 43.835938 -11.082031 47.703125 -15.03125 C 51.578125 -18.976562 53.515625 -24.554688 53.515625 -31.765625 C 53.515625 -38.898438 52.1875 -44.289062 49.53125 -47.9375 C 46.875 -51.582031 42.625 -53.40625 36.78125 -53.40625 C 34.039062 -53.40625 31.382812 -53.0625 28.8125 -52.375 L 28.8125 -61.375 C 31.84375 -62.207031 35.144531 -62.625 38.71875 -62.625 C 47.363281 -62.625 53.960938 -59.890625 58.515625 -54.421875 C 63.078125 -48.960938 65.359375 -41.410156 65.359375 -31.765625 C 65.359375 -25.160156 63.929688 -19.46875 61.078125 -14.6875 C 58.234375 -9.90625 54.378906 -6.257812 49.515625 -3.75 C 44.660156 -1.25 39.273438 0 33.359375 0 L 22.4375 0 Z M 5.125 -53.28125 "/></g></g><g style="fill:#000000;fill-opacity:1;"><g transform="translate(252.46238, 269.558479)"><path style="stroke:none" d="M 28.8125 -39.390625 C 28.8125 -44.253906 27.820312 -47.804688 25.84375 -50.046875 C 23.875 -52.285156 20.382812 -53.40625 15.375 -53.40625 C 10.507812 -53.40625 5.953125 -52.34375 1.703125 -50.21875 L 1.703125 -59.328125 C 3.523438 -60.234375 5.894531 -61.007812 8.8125 -61.65625 C 11.738281 -62.300781 14.644531 -62.625 17.53125 -62.625 C 25.195312 -62.625 30.925781 -60.554688 34.71875 -56.421875 C 38.519531 -52.285156 40.421875 -46.34375 40.421875 -38.59375 L 40.421875 0 L 28.8125 0 Z M 28.8125 -39.390625 "/></g></g><g style="fill:#000000;fill-opacity:1;"><g transform="translate(294.476771, 269.558479)"><path style="stroke:none" d="M 30.96875 1.703125 C 23.53125 1.703125 17.742188 -0.378906 13.609375 -4.546875 C 9.472656 -8.722656 7.40625 -14.113281 7.40625 -20.71875 L 7.40625 -60.921875 L 19.015625 -60.921875 L 19.015625 -21.171875 C 19.015625 -16.617188 20.285156 -13.1875 22.828125 -10.875 C 25.367188 -8.5625 29.109375 -7.40625 34.046875 -7.40625 C 41.859375 -7.40625 48.003906 -10.894531 52.484375 -17.875 L 52.484375 -60.921875 L 64.109375 -60.921875 L 64.109375 0 L 52.828125 0 L 52.828125 -8.203125 C 47.140625 -1.597656 39.851562 1.703125 30.96875 1.703125 Z M 30.96875 1.703125 "/></g></g><g style="fill:#000000;fill-opacity:1;"><g transform="translate(123.708123, 191.178125)"><path style="stroke:none" d="M 7.171875 0 C 6.078125 0 5.242188 -0.304688 4.671875 -0.921875 C 4.109375 -1.535156 3.828125 -2.398438 3.828125 -3.515625 L 3.828125 -16.390625 C 3.828125 -18.015625 3.523438 -19.285156 2.921875 -20.203125 C 2.316406 -21.117188 1.34375 -21.859375 0 -22.421875 L 0 -25.203125 L 10.5625 -25.203125 L 10.5625 -22.328125 L 4.5625 -22.328125 C 5.476562 -21.722656 6.148438 -20.914062 6.578125 -19.90625 C 7.015625 -18.90625 7.234375 -17.695312 7.234375 -16.28125 L 7.234375 -4.453125 C 7.234375 -3.847656 7.359375 -3.425781 7.609375 -3.1875 C 7.859375 -2.957031 8.28125 -2.84375 8.875 -2.84375 L 10.09375 -2.84375 L 10.09375 0 Z M 7.171875 0 "/></g></g><g style="fill:#000000;fill-opacity:1;"><g transform="translate(134.763457, 191.178125)"><path style="stroke:none" d="M 10.796875 0.5 C 9.046875 0.5 7.523438 0.1875 6.234375 -0.4375 C 4.941406 -1.0625 3.941406 -1.9375 3.234375 -3.0625 C 2.523438 -4.195312 2.171875 -5.488281 2.171875 -6.9375 L 2.171875 -17.9375 L 5.59375 -17.9375 L 5.59375 -7 C 5.59375 -5.507812 6.035156 -4.332031 6.921875 -3.46875 C 7.804688 -2.601562 9.097656 -2.171875 10.796875 -2.171875 C 12.472656 -2.171875 13.75 -2.601562 14.625 -3.46875 C 15.507812 -4.332031 15.953125 -5.507812 15.953125 -7 L 15.953125 -23.9375 L 19.375 -23.9375 L 19.375 -6.9375 C 19.375 -5.488281 19.019531 -4.195312 18.3125 -3.0625 C 17.613281 -1.9375 16.613281 -1.0625 15.3125 -0.4375 C 14.019531 0.1875 12.515625 0.5 10.796875 0.5 Z M 10.796875 0.5 "/></g></g><g style="fill:#000000;fill-opacity:1;"><g transform="translate(156.304626, 191.178125)"><path style="stroke:none" d="M 8.34375 0.5 C 7.113281 0.5 5.863281 0.359375 4.59375 0.078125 C 3.320312 -0.191406 2.328125 -0.597656 1.609375 -1.140625 L 1.609375 -3.890625 C 2.566406 -3.304688 3.617188 -2.863281 4.765625 -2.5625 C 5.921875 -2.257812 7.023438 -2.109375 8.078125 -2.109375 C 9.554688 -2.109375 10.617188 -2.28125 11.265625 -2.625 C 11.910156 -2.976562 12.234375 -3.578125 12.234375 -4.421875 C 12.234375 -5.003906 12.078125 -5.472656 11.765625 -5.828125 C 11.453125 -6.191406 10.976562 -6.503906 10.34375 -6.765625 C 9.707031 -7.035156 8.707031 -7.375 7.34375 -7.78125 C 5.375 -8.382812 3.910156 -9.09375 2.953125 -9.90625 C 1.992188 -10.71875 1.515625 -11.851562 1.515625 -13.3125 C 1.515625 -14.957031 2.148438 -16.222656 3.421875 -17.109375 C 4.691406 -17.992188 6.429688 -18.4375 8.640625 -18.4375 C 9.785156 -18.4375 10.890625 -18.304688 11.953125 -18.046875 C 13.015625 -17.785156 13.890625 -17.445312 14.578125 -17.03125 L 14.578125 -14.203125 C 13.816406 -14.679688 12.941406 -15.050781 11.953125 -15.3125 C 10.972656 -15.582031 9.972656 -15.71875 8.953125 -15.71875 C 6.265625 -15.71875 4.921875 -14.914062 4.921875 -13.3125 C 4.921875 -12.707031 5.101562 -12.222656 5.46875 -11.859375 C 5.84375 -11.503906 6.335938 -11.207031 6.953125 -10.96875 C 7.566406 -10.738281 8.601562 -10.410156 10.0625 -9.984375 C 11.488281 -9.554688 12.601562 -9.097656 13.40625 -8.609375 C 14.207031 -8.117188 14.773438 -7.535156 15.109375 -6.859375 C 15.453125 -6.191406 15.625 -5.367188 15.625 -4.390625 C 15.625 -2.910156 15.019531 -1.722656 13.8125 -0.828125 C 12.601562 0.0546875 10.78125 0.5 8.34375 0.5 Z M 8.34375 0.5 "/></g></g><g style="fill:#000000;fill-opacity:1;"><g transform="translate(173.423651, 191.178125)"><path style="stroke:none" d="M 5.53125 0 C 4.4375 0 3.601562 -0.304688 3.03125 -0.921875 C 2.457031 -1.535156 2.171875 -2.398438 2.171875 -3.515625 L 2.171875 -17.9375 L 5.59375 -17.9375 L 5.59375 -4.453125 C 5.59375 -3.847656 5.710938 -3.425781 5.953125 -3.1875 C 6.203125 -2.957031 6.628906 -2.84375 7.234375 -2.84375 L 8.453125 -2.84375 L 8.453125 0 Z M 14.140625 0 C 13.066406 0 12.238281 -0.3125 11.65625 -0.9375 C 11.082031 -1.5625 10.796875 -2.421875 10.796875 -3.515625 L 10.796875 -17.9375 L 14.203125 -17.9375 L 14.203125 -4.453125 C 14.203125 -3.847656 14.332031 -3.425781 14.59375 -3.1875 C 14.851562 -2.957031 15.285156 -2.84375 15.890625 -2.84375 L 17.09375 -2.84375 L 17.09375 0 Z M 14.140625 0 "/></g></g><g style="fill:#000000;fill-opacity:1;"><g transform="translate(192.016719, 191.178125)"><path style="stroke:none" d="M 3.1875 -11.15625 L 1.515625 -13.875 C 2.691406 -15.375 4.039062 -16.507812 5.5625 -17.28125 C 7.082031 -18.050781 8.878906 -18.4375 10.953125 -18.4375 C 13.640625 -18.4375 15.695312 -17.828125 17.125 -16.609375 C 18.550781 -15.390625 19.265625 -13.6875 19.265625 -11.5 L 19.265625 0 L 15.859375 0 L 15.859375 -11.234375 C 15.859375 -12.773438 15.445312 -13.90625 14.625 -14.625 C 13.8125 -15.351562 12.585938 -15.71875 10.953125 -15.71875 C 9.722656 -15.71875 8.640625 -15.53125 7.703125 -15.15625 C 6.765625 -14.789062 5.914062 -14.207031 5.15625 -13.40625 L 6.609375 -11.15625 L 6.609375 0 L 3.1875 0 Z M 3.1875 -11.15625 "/></g></g><g style="fill:#000000;fill-opacity:1;"><g transform="translate(213.457379, 191.178125)"><path style="stroke:none" d="M 8.34375 0.5 C 7.113281 0.5 5.863281 0.359375 4.59375 0.078125 C 3.320312 -0.191406 2.328125 -0.597656 1.609375 -1.140625 L 1.609375 -3.890625 C 2.566406 -3.304688 3.617188 -2.863281 4.765625 -2.5625 C 5.921875 -2.257812 7.023438 -2.109375 8.078125 -2.109375 C 9.554688 -2.109375 10.617188 -2.28125 11.265625 -2.625 C 11.910156 -2.976562 12.234375 -3.578125 12.234375 -4.421875 C 12.234375 -5.003906 12.078125 -5.472656 11.765625 -5.828125 C 11.453125 -6.191406 10.976562 -6.503906 10.34375 -6.765625 C 9.707031 -7.035156 8.707031 -7.375 7.34375 -7.78125 C 5.375 -8.382812 3.910156 -9.09375 2.953125 -9.90625 C 1.992188 -10.71875 1.515625 -11.851562 1.515625 -13.3125 C 1.515625 -14.957031 2.148438 -16.222656 3.421875 -17.109375 C 4.691406 -17.992188 6.429688 -18.4375 8.640625 -18.4375 C 9.785156 -18.4375 10.890625 -18.304688 11.953125 -18.046875 C 13.015625 -17.785156 13.890625 -17.445312 14.578125 -17.03125 L 14.578125 -14.203125 C 13.816406 -14.679688 12.941406 -15.050781 11.953125 -15.3125 C 10.972656 -15.582031 9.972656 -15.71875 8.953125 -15.71875 C 6.265625 -15.71875 4.921875 -14.914062 4.921875 -13.3125 C 4.921875 -12.707031 5.101562 -12.222656 5.46875 -11.859375 C 5.84375 -11.503906 6.335938 -11.207031 6.953125 -10.96875 C 7.566406 -10.738281 8.601562 -10.410156 10.0625 -9.984375 C 11.488281 -9.554688 12.601562 -9.097656 13.40625 -8.609375 C 14.207031 -8.117188 14.773438 -7.535156 15.109375 -6.859375 C 15.453125 -6.191406 15.625 -5.367188 15.625 -4.390625 C 15.625 -2.910156 15.019531 -1.722656 13.8125 -0.828125 C 12.601562 0.0546875 10.78125 0.5 8.34375 0.5 Z M 8.34375 0.5 "/></g></g><g style="fill:#000000;fill-opacity:1;"><g transform="translate(230.576404, 191.178125)"><path style="stroke:none" d="M 11.9375 0.5 C 10.707031 0.5 9.535156 0.253906 8.421875 -0.234375 C 7.316406 -0.722656 6.332031 -1.445312 5.46875 -2.40625 L 5.46875 0 L 2.171875 0 L 2.171875 -17.9375 L 5.59375 -17.9375 L 5.59375 -5.265625 C 6.914062 -3.203125 8.726562 -2.171875 11.03125 -2.171875 C 12.476562 -2.171875 13.578125 -2.507812 14.328125 -3.1875 C 15.078125 -3.875 15.453125 -4.890625 15.453125 -6.234375 L 15.453125 -17.9375 L 18.875 -17.9375 L 18.875 -6.09375 C 18.875 -4.15625 18.257812 -2.570312 17.03125 -1.34375 C 15.800781 -0.113281 14.101562 0.5 11.9375 0.5 Z M 11.9375 0.5 "/></g></g><g style="fill:#000000;fill-opacity:1;"><g transform="translate(251.615053, 191.178125)"><path style="stroke:none" d="M 8.34375 0.5 C 7.113281 0.5 5.863281 0.359375 4.59375 0.078125 C 3.320312 -0.191406 2.328125 -0.597656 1.609375 -1.140625 L 1.609375 -3.890625 C 2.566406 -3.304688 3.617188 -2.863281 4.765625 -2.5625 C 5.921875 -2.257812 7.023438 -2.109375 8.078125 -2.109375 C 9.554688 -2.109375 10.617188 -2.28125 11.265625 -2.625 C 11.910156 -2.976562 12.234375 -3.578125 12.234375 -4.421875 C 12.234375 -5.003906 12.078125 -5.472656 11.765625 -5.828125 C 11.453125 -6.191406 10.976562 -6.503906 10.34375 -6.765625 C 9.707031 -7.035156 8.707031 -7.375 7.34375 -7.78125 C 5.375 -8.382812 3.910156 -9.09375 2.953125 -9.90625 C 1.992188 -10.71875 1.515625 -11.851562 1.515625 -13.3125 C 1.515625 -14.957031 2.148438 -16.222656 3.421875 -17.109375 C 4.691406 -17.992188 6.429688 -18.4375 8.640625 -18.4375 C 9.785156 -18.4375 10.890625 -18.304688 11.953125 -18.046875 C 13.015625 -17.785156 13.890625 -17.445312 14.578125 -17.03125 L 14.578125 -14.203125 C 13.816406 -14.679688 12.941406 -15.050781 11.953125 -15.3125 C 10.972656 -15.582031 9.972656 -15.71875 8.953125 -15.71875 C 6.265625 -15.71875 4.921875 -14.914062 4.921875 -13.3125 C 4.921875 -12.707031 5.101562 -12.222656 5.46875 -11.859375 C 5.84375 -11.503906 6.335938 -11.207031 6.953125 -10.96875 C 7.566406 -10.738281 8.601562 -10.410156 10.0625 -9.984375 C 11.488281 -9.554688 12.601562 -9.097656 13.40625 -8.609375 C 14.207031 -8.117188 14.773438 -7.535156 15.109375 -6.859375 C 15.453125 -6.191406 15.625 -5.367188 15.625 -4.390625 C 15.625 -2.910156 15.019531 -1.722656 13.8125 -0.828125 C 12.601562 0.0546875 10.78125 0.5 8.34375 0.5 Z M 8.34375 0.5 "/></g></g><g style="fill:#000000;fill-opacity:1;"><g transform="translate(268.734078, 191.178125)"><path style="stroke:none" d="M 8.484375 -11.59375 C 8.484375 -13.019531 8.191406 -14.0625 7.609375 -14.71875 C 7.023438 -15.382812 6 -15.71875 4.53125 -15.71875 C 3.09375 -15.71875 1.75 -15.40625 0.5 -14.78125 L 0.5 -17.46875 C 1.039062 -17.726562 1.738281 -17.953125 2.59375 -18.140625 C 3.457031 -18.335938 4.3125 -18.4375 5.15625 -18.4375 C 7.414062 -18.4375 9.101562 -17.828125 10.21875 -16.609375 C 11.332031 -15.390625 11.890625 -13.640625 11.890625 -11.359375 L 11.890625 0 L 8.484375 0 Z M 8.484375 -11.59375 "/></g></g><g style="fill:#000000;fill-opacity:1;"><g transform="translate(282.804505, 191.178125)"><path style="stroke:none" d="M 10.015625 0.5 C 7.429688 0.5 5.367188 0.0078125 3.828125 -0.96875 C 2.285156 -1.957031 1.515625 -3.390625 1.515625 -5.265625 C 1.515625 -6.242188 1.785156 -7.109375 2.328125 -7.859375 C 2.878906 -8.609375 3.613281 -9.128906 4.53125 -9.421875 C 3.65625 -9.796875 2.953125 -10.335938 2.421875 -11.046875 C 1.898438 -11.765625 1.640625 -12.597656 1.640625 -13.546875 C 1.640625 -15.015625 2.128906 -16.195312 3.109375 -17.09375 C 4.097656 -17.988281 5.539062 -18.4375 7.4375 -18.4375 C 7.976562 -18.4375 8.523438 -18.394531 9.078125 -18.3125 C 9.640625 -18.238281 10.085938 -18.15625 10.421875 -18.0625 L 10.421875 -15.390625 C 10.128906 -15.492188 9.753906 -15.570312 9.296875 -15.625 C 8.835938 -15.6875 8.421875 -15.71875 8.046875 -15.71875 C 7.085938 -15.71875 6.351562 -15.507812 5.84375 -15.09375 C 5.34375 -14.6875 5.09375 -14.101562 5.09375 -13.34375 C 5.09375 -12.53125 5.359375 -11.910156 5.890625 -11.484375 C 6.429688 -11.066406 7.226562 -10.859375 8.28125 -10.859375 L 10.421875 -10.859375 L 10.421875 -8.046875 L 8.3125 -8.046875 C 7.238281 -8.046875 6.410156 -7.816406 5.828125 -7.359375 C 5.242188 -6.898438 4.953125 -6.203125 4.953125 -5.265625 C 4.953125 -4.273438 5.40625 -3.507812 6.3125 -2.96875 C 7.21875 -2.4375 8.453125 -2.171875 10.015625 -2.171875 C 13.703125 -2.171875 15.546875 -3.738281 15.546875 -6.875 L 15.546875 -17.9375 L 18.96875 -17.9375 L 18.96875 -6.9375 C 18.96875 -5.6875 18.675781 -4.492188 18.09375 -3.359375 C 17.519531 -2.234375 16.566406 -1.304688 15.234375 -0.578125 C 13.898438 0.140625 12.160156 0.5 10.015625 0.5 Z M 10.015625 0.5 "/></g></g><g style="fill:#000000;fill-opacity:1;"><g transform="translate(303.94365, 191.178125)"><path style="stroke:none" d="M 1.515625 -15.6875 L 4.921875 -15.6875 L 9.1875 -2.6875 C 11.28125 -2.6875 12.894531 -3.265625 14.03125 -4.421875 C 15.175781 -5.585938 15.75 -7.226562 15.75 -9.34375 C 15.75 -11.445312 15.359375 -13.035156 14.578125 -14.109375 C 13.796875 -15.179688 12.546875 -15.71875 10.828125 -15.71875 C 10.023438 -15.71875 9.242188 -15.617188 8.484375 -15.421875 L 8.484375 -18.0625 C 9.367188 -18.3125 10.335938 -18.4375 11.390625 -18.4375 C 13.941406 -18.4375 15.882812 -17.628906 17.21875 -16.015625 C 18.5625 -14.410156 19.234375 -12.1875 19.234375 -9.34375 C 19.234375 -7.40625 18.8125 -5.734375 17.96875 -4.328125 C 17.132812 -2.921875 16.003906 -1.847656 14.578125 -1.109375 C 13.148438 -0.367188 11.5625 0 9.8125 0 L 6.609375 0 Z M 1.515625 -15.6875 "/></g></g><g style="fill:#000000;fill-opacity:1;"><g transform="translate(324.680785, 191.178125)"><path style="stroke:none" d="M 8.484375 -11.59375 C 8.484375 -13.019531 8.191406 -14.0625 7.609375 -14.71875 C 7.023438 -15.382812 6 -15.71875 4.53125 -15.71875 C 3.09375 -15.71875 1.75 -15.40625 0.5 -14.78125 L 0.5 -17.46875 C 1.039062 -17.726562 1.738281 -17.953125 2.59375 -18.140625 C 3.457031 -18.335938 4.3125 -18.4375 5.15625 -18.4375 C 7.414062 -18.4375 9.101562 -17.828125 10.21875 -16.609375 C 11.332031 -15.390625 11.890625 -13.640625 11.890625 -11.359375 L 11.890625 0 L 8.484375 0 Z M 8.484375 -11.59375 "/></g></g><g style="fill:#000000;fill-opacity:1;"><g transform="translate(338.751212, 191.178125)"><path style="stroke:none" d="M 9.109375 0.5 C 6.921875 0.5 5.21875 -0.113281 4 -1.34375 C 2.78125 -2.570312 2.171875 -4.15625 2.171875 -6.09375 L 2.171875 -17.9375 L 5.59375 -17.9375 L 5.59375 -6.234375 C 5.59375 -4.890625 5.96875 -3.875 6.71875 -3.1875 C 7.46875 -2.507812 8.566406 -2.171875 10.015625 -2.171875 C 12.316406 -2.171875 14.128906 -3.203125 15.453125 -5.265625 L 15.453125 -17.9375 L 18.875 -17.9375 L 18.875 0 L 15.546875 0 L 15.546875 -2.40625 C 13.867188 -0.46875 11.722656 0.5 9.109375 0.5 Z M 9.109375 0.5 "/></g></g><path style=" stroke:none;fill-rule:nonzero;fill:#000000;fill-opacity:1;" d="M 62.320312 299.199219 L 71.292969 298.566406 L 71.503906 301.554688 L 62.535156 302.191406 M 74.28125 298.355469 L 83.25 297.71875 L 83.460938 300.710938 L 74.492188 301.34375 M 86.242188 297.507812 L 95.210938 296.875 L 95.421875 299.863281 L 86.453125 300.5 M 98.199219 296.664062 L 107.167969 296.027344 L 107.382812 299.019531 L 98.410156 299.652344 M 110.160156 295.816406 L 119.128906 295.179688 L 119.339844 298.171875 L 110.371094 298.804688 M 122.121094 294.96875 L 131.089844 294.335938 L 131.300781 297.324219 L 122.332031 297.960938 M 134.078125 294.125 L 143.046875 293.488281 L 143.257812 296.480469 L 134.289062 297.113281 M 146.039062 293.277344 L 155.007812 292.644531 L 155.21875 295.632812 L 146.25 296.269531 M 157.996094 292.429688 L 166.96875 291.796875 L 167.179688 294.785156 L 158.210938 295.421875 M 169.957031 291.585938 L 178.925781 290.949219 L 179.136719 293.941406 L 170.167969 294.574219 M 181.917969 290.738281 L 190.886719 290.105469 L 191.097656 293.09375 L 182.128906 293.730469 M 193.875 289.894531 L 202.84375 289.257812 L 203.058594 292.25 L 194.085938 292.882812 M 205.835938 289.046875 L 214.804688 288.414062 L 215.015625 291.402344 L 206.046875 292.035156 M 217.792969 288.199219 L 226.765625 287.566406 L 226.976562 290.554688 L 218.007812 291.191406 M 229.753906 287.355469 L 238.722656 286.71875 L 238.933594 289.710938 L 229.964844 290.34375 M 241.714844 286.507812 L 250.683594 285.875 L 250.894531 288.863281 L 241.925781 289.5 M 253.671875 285.664062 L 262.644531 285.027344 L 262.855469 288.015625 L 253.882812 288.652344 M 265.632812 284.816406 L 274.601562 284.179688 L 274.8125 287.171875 L 265.84375 287.804688 M 277.59375 283.96875 L 286.5625 283.335938 L 286.773438 286.324219 L 277.804688 286.960938 M 289.550781 283.125 L 298.519531 282.488281 L 298.734375 285.480469 L 289.761719 286.113281 M 301.511719 282.277344 L 310.480469 281.644531 L 310.691406 284.632812 L 301.722656 285.265625 M 313.46875 281.429688 L 322.441406 280.796875 L 322.652344 283.785156 L 313.683594 284.421875 M 325.429688 280.585938 L 334.398438 279.949219 L 334.609375 282.941406 L 325.640625 283.574219 M 337.390625 279.738281 L 346.359375 279.105469 L 346.570312 282.09375 L 337.601562 282.730469 M 349.347656 278.894531 L 358.316406 278.257812 L 358.53125 281.246094 L 349.558594 281.882812 "/></g></svg>